<svg width="560" height="556" viewBox="0 0 560 556" fill="none" xmlns="http://www.w3.org/2000/svg">
<circle cx="278" cy="278" r="278" fill="#448C8C"/>
<ellipse cx="277.5" cy="278.5" rx="125.5" ry="123.5" fill="#F5FAFD"/>
<path d="M31.4832 129L132.794 134.292L175.328 222.567" stroke="#F5FAFD" stroke-width="10"/>
<path d="M350.411 7L377.683 97.8877L313.351 163.169" stroke="#F5FAFD" stroke-width="10"/>
<path d="M557.575 289.651L469.448 324.534L399 266.072" stroke="#F5FAFD" stroke-width="10"/>
<path d="M376.262 544.884L305.732 475.121L332.095 383" stroke="#F5FAFD" stroke-width="10"/>
<path d="M52 445.104L98.6484 359.655L192.679 359.515" stroke="#F5FAFD" stroke-width="10"/>
<path d="M426.631 218L424.201 214.49H424.057H421.519V218H418.603V205.4H424.057C425.173 205.4 426.139 205.586 426.955 205.958C427.783 206.33 428.419 206.858 428.863 207.542C429.307 208.226 429.529 209.036 429.529 209.972C429.529 210.908 429.301 211.718 428.845 212.402C428.401 213.074 427.765 213.59 426.937 213.95L429.763 218H426.631ZM426.577 209.972C426.577 209.264 426.349 208.724 425.893 208.352C425.437 207.968 424.771 207.776 423.895 207.776H421.519V212.168H423.895C424.771 212.168 425.437 211.976 425.893 211.592C426.349 211.208 426.577 210.668 426.577 209.972ZM440.427 213.194C440.427 213.23 440.409 213.482 440.373 213.95H433.047C433.179 214.55 433.491 215.024 433.983 215.372C434.475 215.72 435.087 215.894 435.819 215.894C436.323 215.894 436.767 215.822 437.151 215.678C437.547 215.522 437.913 215.282 438.249 214.958L439.743 216.578C438.831 217.622 437.499 218.144 435.747 218.144C434.655 218.144 433.689 217.934 432.849 217.514C432.009 217.082 431.361 216.488 430.905 215.732C430.449 214.976 430.221 214.118 430.221 213.158C430.221 212.21 430.443 211.358 430.887 210.602C431.343 209.834 431.961 209.24 432.741 208.82C433.533 208.388 434.415 208.172 435.387 208.172C436.335 208.172 437.193 208.376 437.961 208.784C438.729 209.192 439.329 209.78 439.761 210.548C440.205 211.304 440.427 212.186 440.427 213.194ZM435.405 210.296C434.769 210.296 434.235 210.476 433.803 210.836C433.371 211.196 433.107 211.688 433.011 212.312H437.781C437.685 211.7 437.421 211.214 436.989 210.854C436.557 210.482 436.029 210.296 435.405 210.296ZM444.855 218.144C444.051 218.144 443.265 218.048 442.497 217.856C441.729 217.652 441.117 217.4 440.661 217.1L441.597 215.084C442.029 215.36 442.551 215.588 443.163 215.768C443.775 215.936 444.375 216.02 444.963 216.02C446.151 216.02 446.745 215.726 446.745 215.138C446.745 214.862 446.583 214.664 446.259 214.544C445.935 214.424 445.437 214.322 444.765 214.238C443.973 214.118 443.319 213.98 442.803 213.824C442.287 213.668 441.837 213.392 441.453 212.996C441.081 212.6 440.895 212.036 440.895 211.304C440.895 210.692 441.069 210.152 441.417 209.684C441.777 209.204 442.293 208.832 442.965 208.568C443.649 208.304 444.453 208.172 445.377 208.172C446.061 208.172 446.739 208.25 447.411 208.406C448.095 208.55 448.659 208.754 449.103 209.018L448.167 211.016C447.315 210.536 446.385 210.296 445.377 210.296C444.777 210.296 444.327 210.38 444.027 210.548C443.727 210.716 443.577 210.932 443.577 211.196C443.577 211.496 443.739 211.706 444.063 211.826C444.387 211.946 444.903 212.06 445.611 212.168C446.403 212.3 447.051 212.444 447.555 212.6C448.059 212.744 448.497 213.014 448.869 213.41C449.241 213.806 449.427 214.358 449.427 215.066C449.427 215.666 449.247 216.2 448.887 216.668C448.527 217.136 447.999 217.502 447.303 217.766C446.619 218.018 445.803 218.144 444.855 218.144ZM453.717 218.144C452.913 218.144 452.127 218.048 451.359 217.856C450.591 217.652 449.979 217.4 449.523 217.1L450.459 215.084C450.891 215.36 451.413 215.588 452.025 215.768C452.637 215.936 453.237 216.02 453.825 216.02C455.013 216.02 455.607 215.726 455.607 215.138C455.607 214.862 455.445 214.664 455.121 214.544C454.797 214.424 454.299 214.322 453.627 214.238C452.835 214.118 452.181 213.98 451.665 213.824C451.149 213.668 450.699 213.392 450.315 212.996C449.943 212.6 449.757 212.036 449.757 211.304C449.757 210.692 449.931 210.152 450.279 209.684C450.639 209.204 451.155 208.832 451.827 208.568C452.511 208.304 453.315 208.172 454.239 208.172C454.923 208.172 455.601 208.25 456.273 208.406C456.957 208.55 457.521 208.754 457.965 209.018L457.029 211.016C456.177 210.536 455.247 210.296 454.239 210.296C453.639 210.296 453.189 210.38 452.889 210.548C452.589 210.716 452.439 210.932 452.439 211.196C452.439 211.496 452.601 211.706 452.925 211.826C453.249 211.946 453.765 212.06 454.473 212.168C455.265 212.3 455.913 212.444 456.417 212.6C456.921 212.744 457.359 213.014 457.731 213.41C458.103 213.806 458.289 214.358 458.289 215.066C458.289 215.666 458.109 216.2 457.749 216.668C457.389 217.136 456.861 217.502 456.165 217.766C455.481 218.018 454.665 218.144 453.717 218.144ZM463.93 218.144C462.91 218.144 461.992 217.934 461.176 217.514C460.372 217.082 459.742 216.488 459.286 215.732C458.83 214.976 458.602 214.118 458.602 213.158C458.602 212.198 458.83 211.34 459.286 210.584C459.742 209.828 460.372 209.24 461.176 208.82C461.992 208.388 462.91 208.172 463.93 208.172C464.95 208.172 465.862 208.388 466.666 208.82C467.47 209.24 468.1 209.828 468.556 210.584C469.012 211.34 469.24 212.198 469.24 213.158C469.24 214.118 469.012 214.976 468.556 215.732C468.1 216.488 467.47 217.082 466.666 217.514C465.862 217.934 464.95 218.144 463.93 218.144ZM463.93 215.84C464.65 215.84 465.238 215.6 465.694 215.12C466.162 214.628 466.396 213.974 466.396 213.158C466.396 212.342 466.162 211.694 465.694 211.214C465.238 210.722 464.65 210.476 463.93 210.476C463.21 210.476 462.616 210.722 462.148 211.214C461.68 211.694 461.446 212.342 461.446 213.158C461.446 213.974 461.68 214.628 462.148 215.12C462.616 215.6 463.21 215.84 463.93 215.84ZM480.173 208.316V218H477.509V216.848C477.137 217.268 476.693 217.592 476.177 217.82C475.661 218.036 475.103 218.144 474.503 218.144C473.231 218.144 472.223 217.778 471.479 217.046C470.735 216.314 470.363 215.228 470.363 213.788V208.316H473.171V213.374C473.171 214.934 473.825 215.714 475.133 215.714C475.805 215.714 476.345 215.498 476.753 215.066C477.161 214.622 477.365 213.968 477.365 213.104V208.316H480.173ZM484.756 209.594C485.092 209.126 485.542 208.772 486.106 208.532C486.682 208.292 487.342 208.172 488.086 208.172V210.764C487.774 210.74 487.564 210.728 487.456 210.728C486.652 210.728 486.022 210.956 485.566 211.412C485.11 211.856 484.882 212.528 484.882 213.428V218H482.074V208.316H484.756V209.594ZM493.648 218.144C492.616 218.144 491.686 217.934 490.858 217.514C490.042 217.082 489.4 216.488 488.932 215.732C488.476 214.976 488.248 214.118 488.248 213.158C488.248 212.198 488.476 211.34 488.932 210.584C489.4 209.828 490.042 209.24 490.858 208.82C491.686 208.388 492.616 208.172 493.648 208.172C494.668 208.172 495.556 208.388 496.312 208.82C497.08 209.24 497.638 209.846 497.986 210.638L495.808 211.808C495.304 210.92 494.578 210.476 493.63 210.476C492.898 210.476 492.292 210.716 491.812 211.196C491.332 211.676 491.092 212.33 491.092 213.158C491.092 213.986 491.332 214.64 491.812 215.12C492.292 215.6 492.898 215.84 493.63 215.84C494.59 215.84 495.316 215.396 495.808 214.508L497.986 215.696C497.638 216.464 497.08 217.064 496.312 217.496C495.556 217.928 494.668 218.144 493.648 218.144ZM508.266 213.194C508.266 213.23 508.248 213.482 508.212 213.95H500.886C501.018 214.55 501.33 215.024 501.822 215.372C502.314 215.72 502.926 215.894 503.658 215.894C504.162 215.894 504.606 215.822 504.99 215.678C505.386 215.522 505.752 215.282 506.088 214.958L507.582 216.578C506.67 217.622 505.338 218.144 503.586 218.144C502.494 218.144 501.528 217.934 500.688 217.514C499.848 217.082 499.2 216.488 498.744 215.732C498.288 214.976 498.06 214.118 498.06 213.158C498.06 212.21 498.282 211.358 498.726 210.602C499.182 209.834 499.8 209.24 500.58 208.82C501.372 208.388 502.254 208.172 503.226 208.172C504.174 208.172 505.032 208.376 505.8 208.784C506.568 209.192 507.168 209.78 507.6 210.548C508.044 211.304 508.266 212.186 508.266 213.194ZM503.244 210.296C502.608 210.296 502.074 210.476 501.642 210.836C501.21 211.196 500.946 211.688 500.85 212.312H505.62C505.524 211.7 505.26 211.214 504.828 210.854C504.396 210.482 503.868 210.296 503.244 210.296ZM512.117 209.594C512.453 209.126 512.903 208.772 513.467 208.532C514.043 208.292 514.703 208.172 515.447 208.172V210.764C515.135 210.74 514.925 210.728 514.817 210.728C514.013 210.728 513.383 210.956 512.927 211.412C512.471 211.856 512.243 212.528 512.243 213.428V218H509.435V208.316H512.117V209.594Z" fill="#F5FAFD"/>
<path d="M385.31 434.4C386.426 434.4 387.392 434.586 388.208 434.958C389.036 435.33 389.672 435.858 390.116 436.542C390.56 437.226 390.782 438.036 390.782 438.972C390.782 439.896 390.56 440.706 390.116 441.402C389.672 442.086 389.036 442.614 388.208 442.986C387.392 443.346 386.426 443.526 385.31 443.526H382.772V447H379.856V434.4H385.31ZM385.148 441.15C386.024 441.15 386.69 440.964 387.146 440.592C387.602 440.208 387.83 439.668 387.83 438.972C387.83 438.264 387.602 437.724 387.146 437.352C386.69 436.968 386.024 436.776 385.148 436.776H382.772V441.15H385.148ZM394.648 438.594C394.984 438.126 395.434 437.772 395.998 437.532C396.574 437.292 397.234 437.172 397.978 437.172V439.764C397.666 439.74 397.456 439.728 397.348 439.728C396.544 439.728 395.914 439.956 395.458 440.412C395.002 440.856 394.774 441.528 394.774 442.428V447H391.966V437.316H394.648V438.594ZM403.467 447.144C402.447 447.144 401.529 446.934 400.713 446.514C399.909 446.082 399.279 445.488 398.823 444.732C398.367 443.976 398.139 443.118 398.139 442.158C398.139 441.198 398.367 440.34 398.823 439.584C399.279 438.828 399.909 438.24 400.713 437.82C401.529 437.388 402.447 437.172 403.467 437.172C404.487 437.172 405.399 437.388 406.203 437.82C407.007 438.24 407.637 438.828 408.093 439.584C408.549 440.34 408.777 441.198 408.777 442.158C408.777 443.118 408.549 443.976 408.093 444.732C407.637 445.488 407.007 446.082 406.203 446.514C405.399 446.934 404.487 447.144 403.467 447.144ZM403.467 444.84C404.187 444.84 404.775 444.6 405.231 444.12C405.699 443.628 405.933 442.974 405.933 442.158C405.933 441.342 405.699 440.694 405.231 440.214C404.775 439.722 404.187 439.476 403.467 439.476C402.747 439.476 402.153 439.722 401.685 440.214C401.217 440.694 400.983 441.342 400.983 442.158C400.983 442.974 401.217 443.628 401.685 444.12C402.153 444.6 402.747 444.84 403.467 444.84ZM419.818 433.644V447H417.136V445.884C416.44 446.724 415.432 447.144 414.112 447.144C413.2 447.144 412.372 446.94 411.628 446.532C410.896 446.124 410.32 445.542 409.9 444.786C409.48 444.03 409.27 443.154 409.27 442.158C409.27 441.162 409.48 440.286 409.9 439.53C410.32 438.774 410.896 438.192 411.628 437.784C412.372 437.376 413.2 437.172 414.112 437.172C415.348 437.172 416.314 437.562 417.01 438.342V433.644H419.818ZM414.598 444.84C415.306 444.84 415.894 444.6 416.362 444.12C416.83 443.628 417.064 442.974 417.064 442.158C417.064 441.342 416.83 440.694 416.362 440.214C415.894 439.722 415.306 439.476 414.598 439.476C413.878 439.476 413.284 439.722 412.816 440.214C412.348 440.694 412.114 441.342 412.114 442.158C412.114 442.974 412.348 443.628 412.816 444.12C413.284 444.6 413.878 444.84 414.598 444.84ZM431.473 437.316V447H428.809V445.848C428.437 446.268 427.993 446.592 427.477 446.82C426.961 447.036 426.403 447.144 425.803 447.144C424.531 447.144 423.523 446.778 422.779 446.046C422.035 445.314 421.663 444.228 421.663 442.788V437.316H424.471V442.374C424.471 443.934 425.125 444.714 426.433 444.714C427.105 444.714 427.645 444.498 428.053 444.066C428.461 443.622 428.665 442.968 428.665 442.104V437.316H431.473ZM437.533 443.202L436.183 444.534V447H433.375V433.644H436.183V441.204L440.287 437.316H443.635L439.603 441.42L443.995 447H440.593L437.533 443.202ZM450.804 446.532C450.528 446.736 450.186 446.892 449.778 447C449.382 447.096 448.962 447.144 448.518 447.144C447.366 447.144 446.472 446.85 445.836 446.262C445.212 445.674 444.9 444.81 444.9 443.67V439.692H443.406V437.532H444.9V435.174H447.708V437.532H450.12V439.692H447.708V443.634C447.708 444.042 447.81 444.36 448.014 444.588C448.23 444.804 448.53 444.912 448.914 444.912C449.358 444.912 449.736 444.792 450.048 444.552L450.804 446.532ZM451.68 437.316H454.488V447H451.68V437.316ZM453.084 435.966C452.568 435.966 452.148 435.816 451.824 435.516C451.5 435.216 451.338 434.844 451.338 434.4C451.338 433.956 451.5 433.584 451.824 433.284C452.148 432.984 452.568 432.834 453.084 432.834C453.6 432.834 454.02 432.978 454.344 433.266C454.668 433.554 454.83 433.914 454.83 434.346C454.83 434.814 454.668 435.204 454.344 435.516C454.02 435.816 453.6 435.966 453.084 435.966ZM461.002 447.144C459.982 447.144 459.064 446.934 458.248 446.514C457.444 446.082 456.814 445.488 456.358 444.732C455.902 443.976 455.674 443.118 455.674 442.158C455.674 441.198 455.902 440.34 456.358 439.584C456.814 438.828 457.444 438.24 458.248 437.82C459.064 437.388 459.982 437.172 461.002 437.172C462.022 437.172 462.934 437.388 463.738 437.82C464.542 438.24 465.172 438.828 465.628 439.584C466.084 440.34 466.312 441.198 466.312 442.158C466.312 443.118 466.084 443.976 465.628 444.732C465.172 445.488 464.542 446.082 463.738 446.514C462.934 446.934 462.022 447.144 461.002 447.144ZM461.002 444.84C461.722 444.84 462.31 444.6 462.766 444.12C463.234 443.628 463.468 442.974 463.468 442.158C463.468 441.342 463.234 440.694 462.766 440.214C462.31 439.722 461.722 439.476 461.002 439.476C460.282 439.476 459.688 439.722 459.22 440.214C458.752 440.694 458.518 441.342 458.518 442.158C458.518 442.974 458.752 443.628 459.22 444.12C459.688 444.6 460.282 444.84 461.002 444.84ZM473.375 437.172C474.575 437.172 475.541 437.532 476.273 438.252C477.017 438.972 477.389 440.04 477.389 441.456V447H474.581V441.888C474.581 441.12 474.413 440.55 474.077 440.178C473.741 439.794 473.255 439.602 472.619 439.602C471.911 439.602 471.347 439.824 470.927 440.268C470.507 440.7 470.297 441.348 470.297 442.212V447H467.489V437.316H470.171V438.45C470.543 438.042 471.005 437.73 471.557 437.514C472.109 437.286 472.715 437.172 473.375 437.172Z" fill="#F5FAFD"/>
<path d="M149.83 487.4H155.554C156.922 487.4 158.128 487.664 159.172 488.192C160.228 488.708 161.044 489.44 161.62 490.388C162.208 491.336 162.502 492.44 162.502 493.7C162.502 494.96 162.208 496.064 161.62 497.012C161.044 497.96 160.228 498.698 159.172 499.226C158.128 499.742 156.922 500 155.554 500H149.83V487.4ZM155.41 497.606C156.67 497.606 157.672 497.258 158.416 496.562C159.172 495.854 159.55 494.9 159.55 493.7C159.55 492.5 159.172 491.552 158.416 490.856C157.672 490.148 156.67 489.794 155.41 489.794H152.746V497.606H155.41ZM163.803 490.316H166.611V500H163.803V490.316ZM165.207 488.966C164.691 488.966 164.271 488.816 163.947 488.516C163.623 488.216 163.461 487.844 163.461 487.4C163.461 486.956 163.623 486.584 163.947 486.284C164.271 485.984 164.691 485.834 165.207 485.834C165.723 485.834 166.143 485.978 166.467 486.266C166.791 486.554 166.953 486.914 166.953 487.346C166.953 487.814 166.791 488.204 166.467 488.516C166.143 488.816 165.723 488.966 165.207 488.966ZM171.775 500.144C170.971 500.144 170.185 500.048 169.417 499.856C168.649 499.652 168.037 499.4 167.581 499.1L168.517 497.084C168.949 497.36 169.471 497.588 170.083 497.768C170.695 497.936 171.295 498.02 171.883 498.02C173.071 498.02 173.665 497.726 173.665 497.138C173.665 496.862 173.503 496.664 173.179 496.544C172.855 496.424 172.357 496.322 171.685 496.238C170.893 496.118 170.239 495.98 169.723 495.824C169.207 495.668 168.757 495.392 168.373 494.996C168.001 494.6 167.815 494.036 167.815 493.304C167.815 492.692 167.989 492.152 168.337 491.684C168.697 491.204 169.213 490.832 169.885 490.568C170.569 490.304 171.373 490.172 172.297 490.172C172.981 490.172 173.659 490.25 174.331 490.406C175.015 490.55 175.579 490.754 176.023 491.018L175.087 493.016C174.235 492.536 173.305 492.296 172.297 492.296C171.697 492.296 171.247 492.38 170.947 492.548C170.647 492.716 170.497 492.932 170.497 493.196C170.497 493.496 170.659 493.706 170.983 493.826C171.307 493.946 171.823 494.06 172.531 494.168C173.323 494.3 173.971 494.444 174.475 494.6C174.979 494.744 175.417 495.014 175.789 495.41C176.161 495.806 176.347 496.358 176.347 497.066C176.347 497.666 176.167 498.2 175.807 498.668C175.447 499.136 174.919 499.502 174.223 499.766C173.539 500.018 172.723 500.144 171.775 500.144ZM183.626 499.532C183.35 499.736 183.008 499.892 182.6 500C182.204 500.096 181.784 500.144 181.34 500.144C180.188 500.144 179.294 499.85 178.658 499.262C178.034 498.674 177.722 497.81 177.722 496.67V492.692H176.228V490.532H177.722V488.174H180.53V490.532H182.942V492.692H180.53V496.634C180.53 497.042 180.632 497.36 180.836 497.588C181.052 497.804 181.352 497.912 181.736 497.912C182.18 497.912 182.558 497.792 182.87 497.552L183.626 499.532ZM187.184 491.594C187.52 491.126 187.97 490.772 188.534 490.532C189.11 490.292 189.77 490.172 190.514 490.172V492.764C190.202 492.74 189.992 492.728 189.884 492.728C189.08 492.728 188.45 492.956 187.994 493.412C187.538 493.856 187.31 494.528 187.31 495.428V500H184.502V490.316H187.184V491.594ZM191.484 490.316H194.292V500H191.484V490.316ZM192.888 488.966C192.372 488.966 191.952 488.816 191.628 488.516C191.304 488.216 191.142 487.844 191.142 487.4C191.142 486.956 191.304 486.584 191.628 486.284C191.952 485.984 192.372 485.834 192.888 485.834C193.404 485.834 193.824 485.978 194.148 486.266C194.472 486.554 194.634 486.914 194.634 487.346C194.634 487.814 194.472 488.204 194.148 488.516C193.824 488.816 193.404 488.966 192.888 488.966ZM201.922 490.172C202.822 490.172 203.638 490.382 204.37 490.802C205.114 491.21 205.696 491.792 206.116 492.548C206.536 493.292 206.746 494.162 206.746 495.158C206.746 496.154 206.536 497.03 206.116 497.786C205.696 498.53 205.114 499.112 204.37 499.532C203.638 499.94 202.822 500.144 201.922 500.144C200.59 500.144 199.576 499.724 198.88 498.884V500H196.198V486.644H199.006V491.342C199.714 490.562 200.686 490.172 201.922 490.172ZM201.436 497.84C202.156 497.84 202.744 497.6 203.2 497.12C203.668 496.628 203.902 495.974 203.902 495.158C203.902 494.342 203.668 493.694 203.2 493.214C202.744 492.722 202.156 492.476 201.436 492.476C200.716 492.476 200.122 492.722 199.654 493.214C199.198 493.694 198.97 494.342 198.97 495.158C198.97 495.974 199.198 496.628 199.654 497.12C200.122 497.6 200.716 497.84 201.436 497.84ZM217.682 490.316V500H215.018V498.848C214.646 499.268 214.202 499.592 213.686 499.82C213.17 500.036 212.612 500.144 212.012 500.144C210.74 500.144 209.732 499.778 208.988 499.046C208.244 498.314 207.872 497.228 207.872 495.788V490.316H210.68V495.374C210.68 496.934 211.334 497.714 212.642 497.714C213.314 497.714 213.854 497.498 214.262 497.066C214.67 496.622 214.874 495.968 214.874 495.104V490.316H217.682ZM225.829 499.532C225.553 499.736 225.211 499.892 224.803 500C224.407 500.096 223.987 500.144 223.543 500.144C222.391 500.144 221.497 499.85 220.861 499.262C220.237 498.674 219.925 497.81 219.925 496.67V492.692H218.431V490.532H219.925V488.174H222.733V490.532H225.145V492.692H222.733V496.634C222.733 497.042 222.835 497.36 223.039 497.588C223.255 497.804 223.555 497.912 223.939 497.912C224.383 497.912 224.761 497.792 225.073 497.552L225.829 499.532ZM226.705 490.316H229.513V500H226.705V490.316ZM228.109 488.966C227.593 488.966 227.173 488.816 226.849 488.516C226.525 488.216 226.363 487.844 226.363 487.4C226.363 486.956 226.525 486.584 226.849 486.284C227.173 485.984 227.593 485.834 228.109 485.834C228.625 485.834 229.045 485.978 229.369 486.266C229.693 486.554 229.855 486.914 229.855 487.346C229.855 487.814 229.693 488.204 229.369 488.516C229.045 488.816 228.625 488.966 228.109 488.966ZM236.027 500.144C235.007 500.144 234.089 499.934 233.273 499.514C232.469 499.082 231.839 498.488 231.383 497.732C230.927 496.976 230.699 496.118 230.699 495.158C230.699 494.198 230.927 493.34 231.383 492.584C231.839 491.828 232.469 491.24 233.273 490.82C234.089 490.388 235.007 490.172 236.027 490.172C237.047 490.172 237.959 490.388 238.763 490.82C239.567 491.24 240.197 491.828 240.653 492.584C241.109 493.34 241.337 494.198 241.337 495.158C241.337 496.118 241.109 496.976 240.653 497.732C240.197 498.488 239.567 499.082 238.763 499.514C237.959 499.934 237.047 500.144 236.027 500.144ZM236.027 497.84C236.747 497.84 237.335 497.6 237.791 497.12C238.259 496.628 238.493 495.974 238.493 495.158C238.493 494.342 238.259 493.694 237.791 493.214C237.335 492.722 236.747 492.476 236.027 492.476C235.307 492.476 234.713 492.722 234.245 493.214C233.777 493.694 233.543 494.342 233.543 495.158C233.543 495.974 233.777 496.628 234.245 497.12C234.713 497.6 235.307 497.84 236.027 497.84ZM248.4 490.172C249.6 490.172 250.566 490.532 251.298 491.252C252.042 491.972 252.414 493.04 252.414 494.456V500H249.606V494.888C249.606 494.12 249.438 493.55 249.102 493.178C248.766 492.794 248.28 492.602 247.644 492.602C246.936 492.602 246.372 492.824 245.952 493.268C245.532 493.7 245.322 494.348 245.322 495.212V500H242.514V490.316H245.196V491.45C245.568 491.042 246.03 490.73 246.582 490.514C247.134 490.286 247.74 490.172 248.4 490.172Z" fill="#F5FAFD"/>
<path d="M66.0577 305.448C66.7777 305.676 67.3417 306.06 67.7497 306.6C68.1577 307.128 68.3617 307.782 68.3617 308.562C68.3617 309.666 67.9297 310.518 67.0657 311.118C66.2137 311.706 64.9657 312 63.3217 312H56.8057V299.4H62.9617C64.4977 299.4 65.6737 299.694 66.4897 300.282C67.3177 300.87 67.7317 301.668 67.7317 302.676C67.7317 303.288 67.5817 303.834 67.2817 304.314C66.9937 304.794 66.5857 305.172 66.0577 305.448ZM59.7037 301.596V304.566H62.6017C63.3217 304.566 63.8677 304.44 64.2397 304.188C64.6117 303.936 64.7977 303.564 64.7977 303.072C64.7977 302.58 64.6117 302.214 64.2397 301.974C63.8677 301.722 63.3217 301.596 62.6017 301.596H59.7037ZM63.1057 309.804C63.8737 309.804 64.4497 309.678 64.8337 309.426C65.2297 309.174 65.4277 308.784 65.4277 308.256C65.4277 307.212 64.6537 306.69 63.1057 306.69H59.7037V309.804H63.1057ZM72.3534 303.594C72.6894 303.126 73.1394 302.772 73.7034 302.532C74.2794 302.292 74.9394 302.172 75.6834 302.172V304.764C75.3714 304.74 75.1614 304.728 75.0534 304.728C74.2494 304.728 73.6194 304.956 73.1634 305.412C72.7074 305.856 72.4794 306.528 72.4794 307.428V312H69.6714V302.316H72.3534V303.594ZM86.4793 302.316V312H83.8153V310.848C83.4433 311.268 82.9993 311.592 82.4833 311.82C81.9673 312.036 81.4093 312.144 80.8093 312.144C79.5373 312.144 78.5293 311.778 77.7853 311.046C77.0413 310.314 76.6693 309.228 76.6693 307.788V302.316H79.4773V307.374C79.4773 308.934 80.1313 309.714 81.4393 309.714C82.1113 309.714 82.6513 309.498 83.0593 309.066C83.4673 308.622 83.6713 307.968 83.6713 307.104V302.316H86.4793ZM98.3708 302.316V310.38C98.3708 312.156 97.9088 313.476 96.9848 314.34C96.0608 315.204 94.7108 315.636 92.9348 315.636C91.9988 315.636 91.1108 315.522 90.2708 315.294C89.4308 315.066 88.7348 314.736 88.1828 314.304L89.2988 312.288C89.7068 312.624 90.2228 312.888 90.8468 313.08C91.4708 313.284 92.0948 313.386 92.7188 313.386C93.6908 313.386 94.4048 313.164 94.8608 312.72C95.3288 312.288 95.5628 311.628 95.5628 310.74V310.326C94.8308 311.13 93.8108 311.532 92.5028 311.532C91.6148 311.532 90.7988 311.34 90.0548 310.956C89.3228 310.56 88.7408 310.008 88.3088 309.3C87.8768 308.592 87.6608 307.776 87.6608 306.852C87.6608 305.928 87.8768 305.112 88.3088 304.404C88.7408 303.696 89.3228 303.15 90.0548 302.766C90.7988 302.37 91.6148 302.172 92.5028 302.172C93.9068 302.172 94.9748 302.634 95.7068 303.558V302.316H98.3708ZM93.0608 309.228C93.8048 309.228 94.4108 309.012 94.8788 308.58C95.3588 308.136 95.5988 307.56 95.5988 306.852C95.5988 306.144 95.3588 305.574 94.8788 305.142C94.4108 304.698 93.8048 304.476 93.0608 304.476C92.3168 304.476 91.7048 304.698 91.2248 305.142C90.7448 305.574 90.5048 306.144 90.5048 306.852C90.5048 307.56 90.7448 308.136 91.2248 308.58C91.7048 309.012 92.3168 309.228 93.0608 309.228Z" fill="#F5FAFD"/>
<path d="M188.815 124.448C189.535 124.676 190.099 125.06 190.507 125.6C190.915 126.128 191.119 126.782 191.119 127.562C191.119 128.666 190.687 129.518 189.823 130.118C188.971 130.706 187.723 131 186.079 131H179.563V118.4H185.719C187.255 118.4 188.431 118.694 189.247 119.282C190.075 119.87 190.489 120.668 190.489 121.676C190.489 122.288 190.339 122.834 190.039 123.314C189.751 123.794 189.343 124.172 188.815 124.448ZM182.461 120.596V123.566H185.359C186.079 123.566 186.625 123.44 186.997 123.188C187.369 122.936 187.555 122.564 187.555 122.072C187.555 121.58 187.369 121.214 186.997 120.974C186.625 120.722 186.079 120.596 185.359 120.596H182.461ZM185.863 128.804C186.631 128.804 187.207 128.678 187.591 128.426C187.987 128.174 188.185 127.784 188.185 127.256C188.185 126.212 187.411 125.69 185.863 125.69H182.461V128.804H185.863ZM197.037 131.144C196.017 131.144 195.099 130.934 194.283 130.514C193.479 130.082 192.849 129.488 192.393 128.732C191.937 127.976 191.709 127.118 191.709 126.158C191.709 125.198 191.937 124.34 192.393 123.584C192.849 122.828 193.479 122.24 194.283 121.82C195.099 121.388 196.017 121.172 197.037 121.172C198.057 121.172 198.969 121.388 199.773 121.82C200.577 122.24 201.207 122.828 201.663 123.584C202.119 124.34 202.347 125.198 202.347 126.158C202.347 127.118 202.119 127.976 201.663 128.732C201.207 129.488 200.577 130.082 199.773 130.514C198.969 130.934 198.057 131.144 197.037 131.144ZM197.037 128.84C197.757 128.84 198.345 128.6 198.801 128.12C199.269 127.628 199.503 126.974 199.503 126.158C199.503 125.342 199.269 124.694 198.801 124.214C198.345 123.722 197.757 123.476 197.037 123.476C196.317 123.476 195.723 123.722 195.255 124.214C194.787 124.694 194.553 125.342 194.553 126.158C194.553 126.974 194.787 127.628 195.255 128.12C195.723 128.6 196.317 128.84 197.037 128.84ZM206.206 122.594C206.542 122.126 206.992 121.772 207.556 121.532C208.132 121.292 208.792 121.172 209.536 121.172V123.764C209.224 123.74 209.014 123.728 208.906 123.728C208.102 123.728 207.472 123.956 207.016 124.412C206.56 124.856 206.332 125.528 206.332 126.428V131H203.524V121.316H206.206V122.594ZM217.085 130.532C216.809 130.736 216.467 130.892 216.059 131C215.663 131.096 215.243 131.144 214.799 131.144C213.647 131.144 212.753 130.85 212.117 130.262C211.493 129.674 211.181 128.81 211.181 127.67V123.692H209.687V121.532H211.181V119.174H213.989V121.532H216.401V123.692H213.989V127.634C213.989 128.042 214.091 128.36 214.295 128.588C214.511 128.804 214.811 128.912 215.195 128.912C215.639 128.912 216.017 128.792 216.329 128.552L217.085 130.532ZM221.22 131.144C220.416 131.144 219.63 131.048 218.862 130.856C218.094 130.652 217.482 130.4 217.026 130.1L217.962 128.084C218.394 128.36 218.916 128.588 219.528 128.768C220.14 128.936 220.74 129.02 221.328 129.02C222.516 129.02 223.11 128.726 223.11 128.138C223.11 127.862 222.948 127.664 222.624 127.544C222.3 127.424 221.802 127.322 221.13 127.238C220.338 127.118 219.684 126.98 219.168 126.824C218.652 126.668 218.202 126.392 217.818 125.996C217.446 125.6 217.26 125.036 217.26 124.304C217.26 123.692 217.434 123.152 217.782 122.684C218.142 122.204 218.658 121.832 219.33 121.568C220.014 121.304 220.818 121.172 221.742 121.172C222.426 121.172 223.104 121.25 223.776 121.406C224.46 121.55 225.024 121.754 225.468 122.018L224.532 124.016C223.68 123.536 222.75 123.296 221.742 123.296C221.142 123.296 220.692 123.38 220.392 123.548C220.092 123.716 219.942 123.932 219.942 124.196C219.942 124.496 220.104 124.706 220.428 124.826C220.752 124.946 221.268 125.06 221.976 125.168C222.768 125.3 223.416 125.444 223.92 125.6C224.424 125.744 224.862 126.014 225.234 126.41C225.606 126.806 225.792 127.358 225.792 128.066C225.792 128.666 225.612 129.2 225.252 129.668C224.892 130.136 224.364 130.502 223.668 130.766C222.984 131.018 222.168 131.144 221.22 131.144ZM230.982 127.202L229.632 128.534V131H226.824V117.644H229.632V125.204L233.736 121.316H237.084L233.052 125.42L237.444 131H234.042L230.982 127.202ZM241.737 121.172C243.237 121.172 244.389 121.532 245.193 122.252C245.997 122.96 246.399 124.034 246.399 125.474V131H243.771V129.794C243.243 130.694 242.259 131.144 240.819 131.144C240.075 131.144 239.427 131.018 238.875 130.766C238.335 130.514 237.921 130.166 237.633 129.722C237.345 129.278 237.201 128.774 237.201 128.21C237.201 127.31 237.537 126.602 238.209 126.086C238.893 125.57 239.943 125.312 241.359 125.312H243.591C243.591 124.7 243.405 124.232 243.033 123.908C242.661 123.572 242.103 123.404 241.359 123.404C240.843 123.404 240.333 123.488 239.829 123.656C239.337 123.812 238.917 124.028 238.569 124.304L237.561 122.342C238.089 121.97 238.719 121.682 239.451 121.478C240.195 121.274 240.957 121.172 241.737 121.172ZM241.521 129.254C242.001 129.254 242.427 129.146 242.799 128.93C243.171 128.702 243.435 128.372 243.591 127.94V126.95H241.665C240.513 126.95 239.937 127.328 239.937 128.084C239.937 128.444 240.075 128.732 240.351 128.948C240.639 129.152 241.029 129.254 241.521 129.254ZM251.319 121.532H253.803V123.692H251.391V131H248.583V123.692H247.089V121.532H248.583V121.1C248.583 119.996 248.907 119.12 249.555 118.472C250.215 117.824 251.139 117.5 252.327 117.5C252.747 117.5 253.143 117.548 253.515 117.644C253.899 117.728 254.217 117.854 254.469 118.022L253.731 120.056C253.407 119.828 253.029 119.714 252.597 119.714C251.745 119.714 251.319 120.182 251.319 121.118V121.532ZM257.579 121.532H260.063V123.692H257.651V131H254.843V123.692H253.349V121.532H254.843V121.1C254.843 119.996 255.167 119.12 255.815 118.472C256.475 117.824 257.399 117.5 258.587 117.5C259.007 117.5 259.403 117.548 259.775 117.644C260.159 117.728 260.477 117.854 260.729 118.022L259.991 120.056C259.667 119.828 259.289 119.714 258.857 119.714C258.005 119.714 257.579 120.182 257.579 121.118V121.532ZM270.125 126.194C270.125 126.23 270.107 126.482 270.071 126.95H262.745C262.877 127.55 263.189 128.024 263.681 128.372C264.173 128.72 264.785 128.894 265.517 128.894C266.021 128.894 266.465 128.822 266.849 128.678C267.245 128.522 267.611 128.282 267.947 127.958L269.441 129.578C268.529 130.622 267.197 131.144 265.445 131.144C264.353 131.144 263.387 130.934 262.547 130.514C261.707 130.082 261.059 129.488 260.603 128.732C260.147 127.976 259.919 127.118 259.919 126.158C259.919 125.21 260.141 124.358 260.585 123.602C261.041 122.834 261.659 122.24 262.439 121.82C263.231 121.388 264.113 121.172 265.085 121.172C266.033 121.172 266.891 121.376 267.659 121.784C268.427 122.192 269.027 122.78 269.459 123.548C269.903 124.304 270.125 125.186 270.125 126.194ZM265.103 123.296C264.467 123.296 263.933 123.476 263.501 123.836C263.069 124.196 262.805 124.688 262.709 125.312H267.479C267.383 124.7 267.119 124.214 266.687 123.854C266.255 123.482 265.727 123.296 265.103 123.296ZM271.295 117.644H274.103V131H271.295V117.644ZM279.267 131.144C278.463 131.144 277.677 131.048 276.909 130.856C276.141 130.652 275.529 130.4 275.073 130.1L276.009 128.084C276.441 128.36 276.963 128.588 277.575 128.768C278.187 128.936 278.787 129.02 279.375 129.02C280.563 129.02 281.157 128.726 281.157 128.138C281.157 127.862 280.995 127.664 280.671 127.544C280.347 127.424 279.849 127.322 279.177 127.238C278.385 127.118 277.731 126.98 277.215 126.824C276.699 126.668 276.249 126.392 275.865 125.996C275.493 125.6 275.307 125.036 275.307 124.304C275.307 123.692 275.481 123.152 275.829 122.684C276.189 122.204 276.705 121.832 277.377 121.568C278.061 121.304 278.865 121.172 279.789 121.172C280.473 121.172 281.151 121.25 281.823 121.406C282.507 121.55 283.071 121.754 283.515 122.018L282.579 124.016C281.727 123.536 280.797 123.296 279.789 123.296C279.189 123.296 278.739 123.38 278.439 123.548C278.139 123.716 277.989 123.932 277.989 124.196C277.989 124.496 278.151 124.706 278.475 124.826C278.799 124.946 279.315 125.06 280.023 125.168C280.815 125.3 281.463 125.444 281.967 125.6C282.471 125.744 282.909 126.014 283.281 126.41C283.653 126.806 283.839 127.358 283.839 128.066C283.839 128.666 283.659 129.2 283.299 129.668C282.939 130.136 282.411 130.502 281.715 130.766C281.031 131.018 280.215 131.144 279.267 131.144ZM294.357 126.194C294.357 126.23 294.339 126.482 294.303 126.95H286.977C287.109 127.55 287.421 128.024 287.913 128.372C288.405 128.72 289.017 128.894 289.749 128.894C290.253 128.894 290.697 128.822 291.081 128.678C291.477 128.522 291.843 128.282 292.179 127.958L293.673 129.578C292.761 130.622 291.429 131.144 289.677 131.144C288.585 131.144 287.619 130.934 286.779 130.514C285.939 130.082 285.291 129.488 284.835 128.732C284.379 127.976 284.151 127.118 284.151 126.158C284.151 125.21 284.373 124.358 284.817 123.602C285.273 122.834 285.891 122.24 286.671 121.82C287.463 121.388 288.345 121.172 289.317 121.172C290.265 121.172 291.123 121.376 291.891 121.784C292.659 122.192 293.259 122.78 293.691 123.548C294.135 124.304 294.357 125.186 294.357 126.194ZM289.335 123.296C288.699 123.296 288.165 123.476 287.733 123.836C287.301 124.196 287.037 124.688 286.941 125.312H291.711C291.615 124.7 291.351 124.214 290.919 123.854C290.487 123.482 289.959 123.296 289.335 123.296Z" fill="#F5FAFD"/>
<path d="M444.666 182.093L454.029 171.312H450.439C449.383 171.312 448.449 170.717 448.004 169.756C447.559 168.798 447.705 167.7 448.388 166.891L457.544 156.063H454.159C453.092 156.063 452.131 155.425 451.714 154.441C451.302 153.473 451.496 152.346 452.211 151.572L465.134 137.576C465.84 136.808 467.159 136.808 467.866 137.576L480.79 151.572C481.505 152.346 481.698 153.473 481.287 154.441C480.87 155.425 479.908 156.063 478.841 156.063H475.456L484.613 166.893C485.294 167.701 485.44 168.798 484.996 169.757C484.551 170.717 483.618 171.312 482.561 171.312H478.971L488.334 182.093C489.037 182.902 489.196 184.01 488.751 184.983C488.311 185.942 487.345 186.562 486.289 186.562H470.25V189.475L473.8 195.241C474.423 196.508 473.516 198 472.123 198H460.877C459.484 198 458.577 196.508 459.2 195.241L462.75 189.475V186.562H446.711C445.655 186.562 444.689 185.942 444.249 184.983C443.804 184.01 443.963 182.902 444.666 182.093Z" fill="white"/>
<g clip-path="url(#clip0)">
<path d="M450.796 413.497L437.716 391.775V374.375H438.609C440.093 374.375 441.287 373.142 441.287 371.609V369.766C441.287 368.233 440.093 367 438.609 367H415.394C413.91 367 412.716 368.233 412.716 369.766V371.609C412.716 373.142 413.91 374.375 415.394 374.375H416.287V391.775L403.207 413.497C399.937 418.925 403.709 426 409.915 426H444.089C450.305 426 454.066 418.913 450.796 413.497V413.497ZM417.392 403.875L422.772 394.933C423.185 394.334 423.419 393.596 423.419 392.812V374.375H430.562V392.812C430.562 393.608 430.807 394.334 431.209 394.933L436.589 403.875H417.392V403.875Z" fill="white"/>
</g>
<path d="M231.275 461.812H229.55V450.2C229.55 448.836 229 447.525 228.03 446.559L217.259 435.827C216.289 434.86 214.974 434.312 213.605 434.312H208.85V429.156C208.85 426.31 206.532 424 203.675 424H169.175C166.318 424 164 426.31 164 429.156V463.531C164 466.378 166.318 468.688 169.175 468.688H170.9C170.9 474.381 175.536 479 181.25 479C186.964 479 191.6 474.381 191.6 468.688H205.4C205.4 474.381 210.036 479 215.75 479C221.464 479 226.1 474.381 226.1 468.688H231.275C232.224 468.688 233 467.914 233 466.969V463.531C233 462.586 232.224 461.812 231.275 461.812ZM181.25 473.844C178.393 473.844 176.075 471.534 176.075 468.688C176.075 465.841 178.393 463.531 181.25 463.531C184.107 463.531 186.425 465.841 186.425 468.688C186.425 471.534 184.107 473.844 181.25 473.844ZM215.75 473.844C212.893 473.844 210.575 471.534 210.575 468.688C210.575 465.841 212.893 463.531 215.75 463.531C218.607 463.531 220.925 465.841 220.925 468.688C220.925 471.534 218.607 473.844 215.75 473.844ZM224.375 451.5H208.85V439.469H213.605L224.375 450.2V451.5Z" fill="white"/>
<path d="M77.5 264C85.2328 264 91.5 257.733 91.5 250C91.5 242.267 85.2328 236 77.5 236C69.7672 236 63.5 242.267 63.5 250C63.5 257.733 69.7672 264 77.5 264ZM87.3 267.5H85.4734C83.0453 268.616 80.3438 269.25 77.5 269.25C74.6562 269.25 71.9656 268.616 69.5266 267.5H67.7C59.5844 267.5 53 274.084 53 282.2V286.75C53 289.648 55.3516 292 58.25 292H96.75C99.6484 292 102 289.648 102 286.75V282.2C102 274.084 95.4156 267.5 87.3 267.5Z" fill="white"/>
<g clip-path="url(#clip1)">
<path d="M223.989 78.2028C224.374 79.8705 222.545 81.1379 221.122 80.2483L216.268 77.2155L210.208 86.9138C208.625 89.4461 210.455 92.7496 213.439 92.7496H219.633C220.423 92.7496 221.063 93.3897 221.063 94.1792V98.9449C221.063 99.7344 220.423 100.375 219.633 100.375H213.452C204.476 100.375 199 90.4802 203.753 82.8752L209.807 73.1786L204.955 70.1467C203.516 69.2475 203.887 67.0537 205.537 66.6728L218.67 63.6406C219.696 63.4038 220.72 64.0434 220.957 65.0691L223.989 78.2028V78.2028ZM235.732 56.4102L240.651 64.2826L235.797 67.3155C234.361 68.2124 234.725 70.4076 236.378 70.7894L249.512 73.8216C250.545 74.0597 251.563 73.412 251.798 72.3931L254.83 59.2594C255.211 57.61 253.402 56.3143 251.963 57.2139L247.115 60.243L242.199 52.3699C237.729 45.2176 227.282 45.2011 222.801 52.3699L220.661 55.7971C220.243 56.4667 220.447 57.3485 221.116 57.7669L225.157 60.2921C225.827 60.7105 226.709 60.5069 227.128 59.8373L229.267 56.4128C230.782 53.9894 234.268 54.0686 235.732 56.4102V56.4102ZM261.248 82.8752L257.969 77.6252C257.551 76.9553 256.669 76.7515 255.999 77.17L251.965 79.6909C251.295 80.1093 251.092 80.9913 251.51 81.661L254.794 86.9166C256.373 89.4436 254.549 92.7497 251.561 92.7497H240.125V87.0332C240.125 85.3398 238.071 84.4856 236.871 85.6854L227.34 95.2143C226.595 95.9587 226.595 97.1657 227.34 97.9101L236.871 107.44C238.063 108.632 240.125 107.797 240.125 106.092V100.375H251.549C260.517 100.375 266.004 90.4862 261.248 82.8752Z" fill="white"/>
</g>
<defs>
<clipPath id="clip0">
<rect width="50" height="59" fill="white" transform="translate(402 367)"/>
</clipPath>
<clipPath id="clip1">
<rect width="61" height="61" fill="white" transform="translate(202 47)"/>
</clipPath>
</defs>
</svg>
