<?xml version="1.0" encoding="utf-8"?>
<!-- Generator: Adobe Illustrator 25.2.0, SVG Export Plug-In . SVG Version: 6.00 Build 0)  -->
<svg version="1.1" id="Layer_1" xmlns="http://www.w3.org/2000/svg" xmlns:xlink="http://www.w3.org/1999/xlink" x="0px" y="0px"
	 viewBox="0 0 1280 1024" style="enable-background:new 0 0 1280 1024;" xml:space="preserve">
<style type="text/css">
	.st0{opacity:0.7;fill:none;stroke:#1D1D1B;stroke-width:6;stroke-miterlimit:10;}
	.st1{fill:none;stroke:#000000;stroke-width:3;stroke-miterlimit:10;}
	.st2{fill:#FCFCFC;stroke:#000000;stroke-width:3;stroke-miterlimit:10;}
	.st3{fill:none;}
	.st4{fill:#62B7B1;}
	.st5{font-family:'Poppins-SemiBold';}
	.st6{font-size:37.4197px;}
	.st7{fill:#F9F8F7;stroke:#050505;stroke-width:3;stroke-miterlimit:10;}
	.st8{fill:none;stroke:#050505;stroke-miterlimit:10;}
	.st9{fill:#C4F4C1;}
	.st10{fill:#777975;}
	.st11{fill:#F0EFE0;}
	.st12{fill:#4F5435;}
	.st13{fill:#3E4429;}
	.st14{fill:#90918B;}
	.st15{fill:#6C644E;}
	.st16{fill:#A69D91;}
	.st17{fill:#AAAAA5;}
	.st18{fill:#5A6340;}
	.st19{fill:#878984;}
	.st20{fill:#DCDDE2;}
	.st21{fill:#4C5132;}
	.st22{fill:#E0E0E6;}
	.st23{fill:#C3CCD9;}
	.st24{fill:#E6E6EC;}
	.st25{fill:#CBD2DE;}
	.st26{fill:#BBC5D7;}
	.st27{fill:#DFDACC;}
	.st28{fill:#545A3A;}
	.st29{fill:#3B4025;}
	.st30{fill:#CBC9BC;}
	.st31{fill:#D6D9E2;}
	.st32{fill:#B4C0D2;}
	.st33{fill:#A9B9CE;}
	.st34{fill:#91A6B8;}
	.st35{fill:#B3BFD1;}
</style>
<path class="st0" d="M686.8,622.5c0,0-7.8-11.1-26.3-6.2"/>
<path class="st0" d="M618.8,613.1c0,0-10.3-11.9-30.6-7.3"/>
<path class="st0" d="M755.7,638.7c0,0-10.3-11.9-30.6-7.4"/>
<path class="st0" d="M779.2,668.7c0,0-0.9-15.7-19.7-24.6"/>
<path class="st0" d="M837.7,711.5c0,0-5.3-14.8-25.9-17.9"/>
<path class="st0" d="M899.4,748.6c0,0-5.3-14.8-25.9-17.9"/>
<path class="st0" d="M493.5,551c0,0-8.7,4.5-16.9-10.2"/>
<path class="st0" d="M717,631c0,0-9.7,7.5-24.2-3.7"/>
<path class="st0" d="M531.1,575.8c0,0-1.6,14.7,15.6,25"/>
<path class="st0" d="M553.6,604.6c0,0,11.3,9.4,29.4,0.9"/>
<path class="st0" d="M624.6,616.6c0,0,11.3,9.4,29.4,0.9"/>
<path class="st0" d="M781.4,673.5c0,0,2.3,14.6,21.6,20"/>
<path class="st0" d="M904.8,751.4c0,0,6.4,13.3,26.4,13"/>
<path class="st0" d="M840.7,716.3c0,0,6.4,13.3,26.4,13"/>
<path class="st0" d="M1005.7,784.7c0,0-14.3,6.6-30.9-5.8"/>
<path class="st0" d="M1011.4,786.6c0,0,13.9-4.8,27.8,9.6"/>
<path class="st0" d="M941.5,765.6c0,0,13.9-4.8,27.8,9.6"/>
<path class="st0" d="M1114,813.4c0,0-10-12.1-30.4-8.1"/>
<path class="st0" d="M1119.7,820.5c0,0,12.8,7.3,11.1,27.3"/>
<path class="st0" d="M1047.8,802.9c0,0,10.5,10.3,29.3,3.3"/>
<path class="st0" d="M453.3,529.7c0,0,9.1-5.3,19.3,8.5"/>
<path class="st0" d="M500.8,549.9c0,0,17.1-6.7,30.2,21.1"/>
<path class="st0" d="M1131.4,852.6c0,0,3.5,18.1-26.2,26"/>
<path class="st0" d="M431.6,525.3c0,0,0.8,8.3,16.2,4.1"/>
<path class="st0" d="M408.4,506.1c0,0,13-1.3,20.7,15.8"/>
<g>
	<circle class="st1" cx="743.8" cy="616.7" r="16"/>
	<circle class="st1" cx="640.3" cy="604.4" r="16"/>
	<path class="st2" d="M760,599.4l-131.9-15c-5.2-0.6-9-5.3-8.4-10.6l6.7-58.7c0.6-5.2,5.3-9,10.6-8.4l131.9,15
		c5.2,0.6,9,5.3,8.4,10.6l-6.7,58.7C769.9,596.2,765.2,600,760,599.4z"/>
	
		<rect x="715.6" y="473.2" transform="matrix(0.1128 -0.9936 0.9936 0.1128 84.8713 1299.9236)" class="st3" width="109.6" height="258.6"/>
	<text transform="matrix(0.9936 0.1128 -0.1128 0.9936 645.0923 559.8303)" class="st4 st5 st6">NUUII</text>
	<path class="st7" d="M803.4,597.2l-31.8-3.6l5.6-49.2l29.9,3.4c5.8,0.7,10,5.9,9.4,11.7l-3.4,30
		C812.4,594.3,808.1,597.7,803.4,597.2z"/>
	<path class="st8" d="M805.3,559.1l-19.2-2.2c-2.3-0.3-4.5,1.4-4.7,3.8l-0.9,7.9c-0.3,2.3,1.4,4.5,3.8,4.7l19.2,2.2
		c2.3,0.3,4.5-1.4,4.7-3.8l0.9-7.9C809.3,561.5,807.6,559.4,805.3,559.1z"/>
</g>
<path class="st9" d="M483,459.2c68.3,56.1-144.7,57.3-238.9,46.3c-92.8-10.9-186.7-5.8-201.6-73.8s133-25.5,227.9-22.1
	C367.1,413.1,429.2,415,483,459.2z"/>
<g>
	<path class="st10" d="M193.5,194.9c0.5-1.4,0.9-2.7,1.4-4.1c0.7,0.8,1.3,1.5,2,2.3c-0.3,9.9-0.6,19.7-0.8,29.6
		c-0.1,3.6,0.4,7.2,0.6,10.8c0.2,0.3,0.4,0.5,0.5,0.8c-0.4,1.6-1,3.3-1.1,4.9c-0.1,9.2-0.1,18.4-0.1,27.6c0,0.3,0,0.6,0,0.9
		c0.1,1.1,0.1,2.2,0.2,3.3c0,3,0,6,0,9c-0.1,2.9-0.2,5.8-0.3,8.6c-0.2,1.5-0.4,3-0.7,4.5c0.6,3.1-2.2,6.6,1.3,9.2
		c-0.2,1.2-0.3,2.4-0.5,3.6c-0.6,1-1.7,2-1.7,3c-0.1,5.6,0.1,11.2,0.2,16.8c-0.1,10.7-0.1,21.4-0.3,32.2c-0.1,8.7-0.4,17.4-0.7,26.1
		c0,10.9,0,21.8,0,32.8c0.5,0,0.9,0,1.4,0c0.4-10.4-0.7-21,3.8-30.8c4.8,1,10.6-1.1,14.8,5.3c0.9-2.4,2.1-4.1,1.9-5.8
		c-0.1-0.8-2.7-1.7-4.2-1.9c-3.9-0.5-7.8-0.6-11.7-0.9c-0.2-0.8-0.4-1.6-0.7-2.4l0.2-0.1c0,0,0.1,0.2,0.1,0.2c1-0.2,2-0.4,3-0.6
		c0.6-0.2,1.2-0.4,1.8-0.6c9.6-1.5,19.2-3,28.8-4.5c0-5.8,0-11.1,0-16.8c0.6,0.3,0.4,0.2,0.3,0.2c-6.8,1.5-13.6,3-20.5,4.5
		c-4.8,0.9-9.6,1.8-14.5,2.7c-0.2-1.3-0.4-2.5-0.5-3.8c0.1-1.1,0.2-2.2,0.3-3.4c13.7-3.3,27.4-6.5,41.1-9.8
		c4.6-1.1,9.3-2.2,13.9-3.3c0.3,0.3,0.7,0.5,1,0.8c0,0,0,0,0,0c0,0.3,0.1,0.6,0.1,0.9c-0.4,15.1-0.9,30.2-1.3,45.7
		c17.3-2,33.6-3.9,50.4-5.9c0,21.2,0,41.7,0,62.1c-1.7,0-3.4-0.1-5.1-0.1c-1.5-4.4-5.6-3.9-9-4.6c-0.2-2.9-0.4-5.7-0.7-8.6
		c0-2.6-0.1-5.2,0.1-7.8c0.2-2.9-1-3.8-3.8-3.7c-3.7,0.2-7.5,0.1-11.2,0.1c-0.3,1.4-0.8,2.7-0.8,4.1c-0.1,5.7-0.1,11.3-0.2,17
		c-0.8,0.3-1.7,0.6-2.5,1c-0.1-0.4-0.2-0.8-0.3-1.3c-0.2-5.1-0.5-10.1-0.6-15.2c-0.1-5.9-0.1-6.1-6.1-5.5c-2.9,0.3-5.7,1.5-8.5,2.3
		c-0.1,2.6,0.2,5.3-0.4,7.8c-0.5,2.3-1.9,4.4-3,6.6c-0.2-4.1-0.3-8.1-0.5-12.2c-0.1-1.1-0.5-3.1-0.8-3.1c-3.6-0.3-7.3-0.6-10.8-0.1
		c-0.8,0.1-1.2,3.6-1.5,5.6c-0.3,2-0.1,4.1-0.2,6.1c-0.4,0.5-1.1,1.1-1.1,1.6c0.1,6.2,0.3,12.4,0.4,18.5c-6.3,0-12.5,0.1-18.8,0
		c-2,0-3.9-0.6-5.9-1c3.8-0.3,7.6-0.7,11.4-1c1.5,0,2.9-0.1,4.4-0.1c2,0,3.9,0,5.9,0c0-0.3,0-0.7,0-1c-1.4-0.4-2.7-0.8-4.1-1.2
		c-0.6-1.2-1.2-2.4-1.8-3.6c-1.5-0.6-3-1.2-4.4-1.8c-1.5-1.8-2.8-3.6-4.5-5.2c-0.9-0.9-2.5-1.8-3.6-1.5c-1,0.2-1.7,1.9-2.4,2.9
		c-0.5,0.7-0.8,1.4-1.2,2.2c-0.4-1.3-0.9-2.5-1.3-3.8c1.7-1.7,3.4-3.4,5-5.1c0.7-3.3-0.6-4.5-4-4.3c-3.3,0.2-6.7,0.2-10.1,0
		c-3.2-0.1-4.7,1.1-4.3,4.3c0.4,3,2.1,1.3,3.5,1c1.4,0,2.9,0.1,4.3,0.1c0.7,0.5,1.4,1.1,2.1,1.6c-1,0.3-2,0.6-3,0.9
		c-3.6,0-7.2,0-11.6,0c1.5,1.3,2.2,2,2.9,2.6c-0.9,1.2-1.9,2.5-2.8,3.7c-3.2,3.3-5,1.2-6.7-1.6c-0.3-0.7-0.6-1.3-0.9-2
		c-0.1-0.4-0.2-0.8-0.2-0.6c-2,1.1-4.2,2.2-6.9,3.7c0-3.7,0.2-6.5-0.1-9.2c-0.1-1.2-1.1-2.3-1.6-3.5c-0.9,1-2.5,2-2.6,3.2
		c-0.3,4.2-0.4,8.4-0.1,12.6c0.1,1.3,1.5,2.5,2.4,3.7c-0.3,0.8-0.5,1.6-0.8,2.4c-7.8,0.3-15.7,0.4-23.5,1c-1.5,0.1-4.5-1-4.5,2.5
		c-0.6,0-1.2,0-1.8,0c-0.2-4.1-4.5-2.4-6.1-4.4c2.8-0.9,5.6-2.5,8.4-2.7c4.3-0.2,8.7,0.7,13,0.7c1,0,2.7-1.5,3-2.6
		c0.7-2.9,0.9-6,1.3-9c0.3,0,0.5,0,0.8,0c0,3.7,0,7.4,0,11.3c4-1.7,4.6-5.2,4.1-20.7c-0.1-1.4-0.2-2.7-0.2-3.5c-10,0-19.3,0-28.7,0
		c0-2.6,0-5.3,0-7.9c0.4-7.7,0.8-15.4,1.2-23.1c-0.3,0-0.7,0-1,0c-0.1,0.4-0.2,0.8-0.2,1.3c-0.3,0.8-0.7,1.6-0.8,2.4
		c-0.4,9.1-0.6,18.2-0.9,27.4c-0.9,0-1.8,0-2.6,0c0.3-18.7,0.6-37.5,0.9-56.2c15.6-3.5,31.3-7,46.9-10.7c1-0.2,2.2-2,2.2-3.2
		c0.2-4.2,0-8.3,0-12.5c4-8.8,4.4-17.9,1.8-27.2c1.9-0.1,4.4,0.5,4.3-2.6c-0.1-3.2-0.5-6.5-0.8-9.7c0.3-1.2,0.7-2.5,0.8-3.7
		c0.1-7.5-0.3-15,0.3-22.4c0.3-4.1,0.9-7.8-2.1-12c-0.3,4.6-0.7,8.6-0.7,12.6c-0.1,5.3,0,10.5,0,15.8c-0.7-1-2-2-2.1-3
		c-0.4-5.1-0.5-10.3-0.7-15.4c0-0.9,0-1.8,0-2.6c-0.1-1.2-0.1-2.3-0.2-3.5c0.4-1.2,0.8-2.4,1.1-3.6c0-0.3,0-0.5,0-0.8l0,0
		c1.4-1.7,3.8-3.3,3.9-5c0.3-7-0.2-14.1-0.4-21.1c0.4-6,0.9-12.1,1.2-18.1c0-0.5-0.8-1.1-1.3-1.6c0.8-2.6-0.9-2.4-2.5-2.4
		c-0.2-0.9-0.5-1.7-0.7-2.6c3.5-0.7,2.6-3.1,2.2-5.4c-0.7-4.1-1.3-8.2-2.1-13.2c2.1,1.2,2.8,1.6,3.2,1.8
		C192.4,198.2,192.9,196.6,193.5,194.9z M182.1,383.6l0.4,0l0.4-0.1c2.1,0.1,4.3,0.1,6.4,0.2c-2.3,3.9,1.5,8.9-2.2,12.6
		c0.4,0.2,0.7,0.4,1.1,0.6c0.5,11.5,1,23,1.6,34.4c0.6,0,1.2,0,1.9,0c0-11.5,0-23,0-34.5c0-4.4-0.1-8.7-0.1-13.1
		c0-8.3,0-16.6,0-24.9c-0.5,0-1.1,0-1.6,0c0,2.9,0,5.7,0,8.6c-3.2,0.8-6.3,1.5-9.5,2.3c-3.8,3.1-1.2,7.3-1.8,11
		C178.2,383.4,179.8,384,182.1,383.6z M235.7,373.9c3.4-0.3,6.2-0.3,8.8-0.9c1-0.2,2.4-1.6,2.4-2.5c0.2-4.8,0.1-9.6,0.1-14.7
		c-2.7,0.4-5.1,0.2-6.9,1.1c-1.8,0.8-4,2.6-4.2,4.2C235.3,365.1,235.7,369.2,235.7,373.9z M184.3,439.8c0.5,0.2,0.9,0.5,1.4,0.7
		c2.1-1.4,6.5-1.1,4.7-5.5c-0.3-0.8-3.4-1.3-3.6-1C185.7,435.7,185.1,437.8,184.3,439.8z"/>
	<path class="st11" d="M413.2,393.3c0.2,0,0.5,0.1,0.7,0.1c4.8,0.5,9.5,1.1,14.3,1.5c0.5,0,1-0.9,1.6-1.3c2,0.2,4.1,0.5,6.1,0.7
		c0,20.8,0,41.6,0,62.4c-10.5,0-21.1,0-31.6,0c-0.1-4.4,0.1-8.8-0.3-13.1c-0.1-1.2-1.5-3-2.5-3.3c-1.2-0.3-3.9,1-3.9,1.5
		c0.4,4.7,1.2,9.3,1.8,13.9c-2.8,0.4-5.6,0.8-8.3,1.3c-0.9-0.1-1.8-0.1-2.7-0.2c0.8-1.4,1.7-2.9,2.5-4.3c0.2-2.9,0.4-5.8,0.6-8.9
		c-0.8,0-1.9-0.1-3.2-0.2c0-4.8,0.1-9.3-0.1-13.8c0-1.2-1-2.3-1.5-3.5c-5-0.3-10-0.6-14.9-0.9c-0.2-11.1-0.4-22.2-0.6-33.3
		c2,0,4.1,0,6.1,0.1C389.2,392.3,401.2,392.8,413.2,393.3z"/>
	<path class="st12" d="M288.4,435.6c0.2,2.9,0.4,5.7,0.7,8.6c-7.3,0.4-7.6,0.6-5.9,5.6c1.1,0.5,2.2,1.3,3.3,1.3
		c2.1,0,4.3-0.3,6.4-0.6c1.4,0.2,2.8,0.4,4.2,0.6c2.8,1.5,5.6,2.7,8-0.7c0-4.9,0-9.7,0-14.6c0.7,0,1.3,0,2,0c0,6.3,0,12.6,0,18.8
		c-0.1,1.5-0.1,3.1-0.2,4.6c-2.9,0-5.9,0-8.8,0c2.2-2.1,2.5-4.4-0.9-4.9c-3.9-0.6-7.9-0.1-12.1-0.1c0.7,2.2,1.2,3.6,1.6,5.1
		c-4.7,0-9.4,0-14.1,0c-0.8-0.9-1.6-1.7-2.5-2.6c0.5-1.2,1.1-2.7,1.7-4.1c1.2-2.3,2.4-4.7,3.7-7c-0.9,0-1.9-0.1-2.9-0.1
		c0-5.7,0-11.3,0.2-17c0-1.4,0.5-2.7,0.8-4.1c0.6,1.1,1.2,2.3,1.4,2.6c3.4-0.3,6.3-0.9,9.2-0.8c5.6,0.1,2.5,4.7,3.4,7.2
		C287.8,434,288.1,434.8,288.4,435.6z"/>
	<path class="st13" d="M341,459.3c-7.9,0-15.8,0-23.7,0c0.8-2.7,1.7-5.4,2.5-8c0-1.4,0.1-2.8,0.1-4.3c1.5-4.8,1.5-9.5-0.4-14.1
		c1-0.4,2.1-0.7,3.1-1.1c0.6,0.1,1.2,0.1,1.8,0.2c0,0.3,0,0.6,0.1,0.8c0,1.9-0.2,3.8-0.1,5.7c0.2,1.9-1.1,4.8,2.5,5
		c3.7,0.2,2.4-2.9,3-4.7c0.1-0.2,0.4-0.4,0.5-0.6c1.5,0.5,2.9,0.9,4.8,1.6c-3.3,2.2-6.2,4-8.7,5.6c2.7,0,6.3,0,10,0
		c0.7,0.8,1.4,1.6,2.1,2.4c-0.1,2.4-0.2,4.8-0.3,7.1c0.9,0.4,1.8,0.8,2.7,1.1C341,457.1,341,458.2,341,459.3z"/>
	<path class="st14" d="M211.9,456.5c1.9,0.3,3.9,0.9,5.9,1c6.3,0.1,12.5,0,18.8,0c0.3,0.6,0.5,1.2,0.8,1.8c-17.6,0-35.1,0-52.7,0
		c-0.1-0.9-0.2-1.8-0.3-2.7c0-2,0-4,0-6c0.2-2.4,0.3-4.7,0.5-7.1c0.3,0.7,0.6,1.3,0.9,2c0,3.3,0,6.5,0,10.3c6.5,0,12.6,0.1,18.6,0
		c3.9,0,4.5-1.2,2.9-5.2c0.5-3.5,0.9-7,1.4-10.5c0.6,0.8,1.2,1.6,1.8,2.3c0.4,1.3,0.9,2.5,1.3,3.8c0.2,0.5,0.3,1.1,0.5,1.6
		c-0.6,0.4-1.3,0.8-1.9,1.2C209.9,451.7,206.8,455,211.9,456.5z"/>
	<path class="st15" d="M271.7,452.5c-0.6,1.5-1.2,2.9-1.7,4.1c0.9,0.9,1.7,1.8,2.5,2.6c-2.3,0-4.7,0-7,0c-4.1-0.7-8.2-1.4-12.4-2.1
		c0.6-0.8,1.2-1.5,1.8-2.3c8.1,0,11.4-3.3,11.4-11.5c0-2.1,0.2-4.2,0.4-6.3c0.2,0.1,0.4,0.1,0.6,0.2c0.8,2.6,1.5,5.2,2.3,7.7
		c0.1,0.4,0.2,0.8,0.3,1.3C268.5,448.9,268.3,451.2,271.7,452.5z"/>
	<path class="st16" d="M146.9,459.3c0-3.5,3-2.4,4.5-2.5c7.8-0.5,15.7-0.7,23.5-1c3,0.3,6,0.5,9,0.8c0,0.9-0.1,1.8-0.1,2.7
		C171.5,459.3,159.2,459.3,146.9,459.3z"/>
	<path class="st17" d="M404.3,456.6c10.5,0,21.1,0,31.6,0c0.4,2.2-0.4,2.7-2.6,2.7c-14.3-0.1-28.7-0.1-43-0.1
		c0.3-0.8,0.5-1.6,0.8-2.4c2.8-0.4,5.6-0.8,8.3-1.3C401,455.9,402.6,456.3,404.3,456.6z"/>
	<path class="st15" d="M237.4,459.3c-0.3-0.6-0.5-1.2-0.8-1.8c-0.1-6.2-0.3-12.4-0.4-18.5c0-0.5,0.7-1.1,1.1-1.6
		c0.3,2.2,0.9,4.5,0.9,6.7c0.1,11,1.1,11.8,12,9.3c0.1,0,0.3,0,0.4-0.1c0.3,1.3,0.6,2.6,1,3.8c-2.1,0.7-4.2,1.5-6.2,2.2
		C242.7,459.3,240,459.3,237.4,459.3z"/>
	<path class="st13" d="M286.6,459.3c-0.5-1.4-0.9-2.9-1.6-5.1c4.3,0,8.3-0.5,12.1,0.1c3.4,0.5,3.1,2.8,0.9,4.9
		C294.2,459.3,290.4,459.3,286.6,459.3z"/>
	<path class="st10" d="M132,459.3c-0.6,0-1.2,0-1.8,0c-0.3-2.6-1.8-3.7-4.4-3.5c-2.5,0.1-3.7-1.1-3.3-3.7c1.3,0.1,2.6,0,3.8,0.2
		c3.4,0.4,4.4-1.2,3.7-4.3c0.7-2.1,1.4-4.2,2.2-6.3c0,2.6,0,5.2,0.1,7.8c-0.1,0.9-0.1,1.8-0.2,2.8C132.1,454.6,132,456.9,132,459.3z
		"/>
	<path class="st14" d="M122.5,452c-0.4,2.6,0.8,3.8,3.3,3.7c2.6-0.1,4,1,4.4,3.5c-2.9,0-5.9,0-8.8,0c0-4.1-0.1-8.3-0.1-12.4
		c-0.8-1.4-1.7-2.9-2.5-4.3c0.9,0,1.7-0.1,2.6-0.1c0.6,0.1,1.1,0.2,1.7,0.3c0,0,0.1-0.1,0.1-0.1C122.9,445.8,122.7,448.9,122.5,452z
		"/>
	<path class="st10" d="M319.8,451.2c-0.8,2.7-1.7,5.4-2.5,8c-3.5,0-7,0-10.5,0c0.1-1.5,0.1-3.1,0.2-4.6c2.6,3,5.4,4.5,8.5,2.1
		c-0.4-2.5-0.8-4.5-1.1-6.5C316.2,450.6,318,450.9,319.8,451.2z"/>
	<path class="st18" d="M358.6,459.3c-0.6,0-1.2,0-1.8,0c-0.1-0.9-0.2-1.9-0.3-2.8c0-2.5,0-5.1,0-7.6c-0.3-0.7-0.5-1.3-0.8-2
		c0.2-1.7,0.6-3.3,0.6-5c0-3,0.8-6.3-2.9-8c1.3-0.3,2.7-0.5,4-0.8c0.2,2.8,0.4,5.6,0.6,8.5c0.4,3.3,0.7,6.6,1.1,9.9
		c0.1,2,0.1,4,0.2,6C359.1,458.1,358.8,458.7,358.6,459.3z"/>
	<path class="st16" d="M391,456.8c-0.3,0.8-0.5,1.6-0.8,2.4c-6.1,0-12.3,0-18.4,0c0.6-0.6,1.2-1.2,1.8-1.8c4.9-0.3,9.9-0.5,14.8-0.8
		C389.3,456.7,390.2,456.8,391,456.8z"/>
	<path class="st15" d="M132,459.3c0-2.4,0.1-4.7,0.1-7.1c0.5-0.9,1.1-1.8,1.6-2.7c0.1-1.1,0.1-2.2,0.2-3.4c0.5,1.2,1.3,2.3,1.6,3.6
		c0.5,1.9,0.6,4,0.9,5.9c0,1.2,0,2.4,0,3.6C134.9,459.3,133.5,459.3,132,459.3z"/>
	<path class="st19" d="M373.5,457.4c-0.6,0.6-1.2,1.2-1.8,1.8c-2.6,0-5.3,0-7.9,0c0.1-1.2,0.2-2.3,0.3-3.5c0.8,0,1.6,0,2.4,0
		c0.4,0.6,0.9,1.2,1.3,1.8c1-1.1,2.6-2.1,2.8-3.3c0.5-3.6,0.3-7.2,0.4-10.8c0.3,0,0.5,0,0.8,0C372.4,448.1,373,452.8,373.5,457.4z"
		/>
	<path class="st20" d="M364.2,455.8c-0.1,1.2-0.2,2.3-0.3,3.5c-0.9,0-1.8,0-2.6,0c-0.6-0.6-1.3-1.2-1.9-1.7c-0.1-2-0.1-4-0.2-6
		c0.3-0.6,0.6-1.2,1.3-2.7C361.9,451.6,363,453.7,364.2,455.8z"/>
	<path class="st16" d="M136.4,459.3c0-1.2,0-2.4,0-3.6c0.9-0.3,1.8-0.5,2.7-0.8c1.7,2,5.9,0.3,6.1,4.4
		C142.3,459.3,139.3,459.3,136.4,459.3z"/>
	<path class="st16" d="M245.3,459.3c2.1-0.7,4.2-1.5,6.2-2.2c0.5,0,1.1,0.1,1.6,0.1c4.1,0.7,8.2,1.4,12.4,2.1
		C258.8,459.3,252,459.3,245.3,459.3z"/>
	<path class="st16" d="M356.5,456.5c0.1,0.9,0.2,1.9,0.3,2.8c-2.3,0-4.7,0-7,0c-0.2-0.2-0.4-0.5-0.6-0.7c-0.1,0.2-0.2,0.5-0.3,0.7
		c-0.6,0-1.2,0-1.8,0c0-0.9,0.1-1.8,0.1-2.7C350.4,456.5,353.5,456.5,356.5,456.5z"/>
	<path class="st15" d="M347.3,456.5c0,0.9-0.1,1.8-0.1,2.7c-2,0-4.1,0-6.1,0c0-1.1,0-2.2-0.1-3.3C343,457.2,345.5,452.8,347.3,456.5
		z"/>
	<path class="st14" d="M359.3,457.5c0.6,0.6,1.3,1.2,1.9,1.7c-0.9,0-1.8,0-2.6,0C358.8,458.7,359.1,458.1,359.3,457.5z"/>
	<path class="st21" d="M183.8,459.3c0-0.9,0.1-1.8,0.1-2.7c0,0,0.4,0,0.4,0c0.1,0.9,0.2,1.8,0.3,2.7
		C184.4,459.3,184.1,459.3,183.8,459.3z"/>
	<path class="st15" d="M348.9,459.3c0.1-0.2,0.2-0.5,0.3-0.7c0.2,0.2,0.4,0.5,0.6,0.7C349.5,459.3,349.2,459.3,348.9,459.3z"/>
	<path class="st22" d="M196.1,266.9c0-9.2,0-18.4,0.1-27.6c0-1.7,0.7-3.3,1.1-4.9c1.1,0,2.2,0,3.3,0c0,0,0,0,0,0
		c-0.3,0.9-0.6,1.9-1,2.8c-0.4,6.5-0.8,13-1.2,19.5c0.3,0,0.5,0.1,0.8,0.1c0.4-1,0.7-2,1.1-3c4.2-2.1,8.2-3.2,11.8,1.3
		c0.8,0.9,2.6,1.2,4.1,1.4c4.1,0.5,8.2,1,12.4,1.3c3.7,0.3,7.5,0.9,11,0.1c1.6-0.4,2.9-3.6,3.7-5.8c0.3-0.9-0.6-3.1-1.5-3.6
		c-3.3-1.9-6.9-3.3-10.3-5c-1-0.5-1.8-1.3-2.7-2c1.8,0.1,3.5,0.1,5.3,0.2c2.6,0.6,5.1,1.2,7.7,1.8c3,5.6,3.7,5.7,10,4.8
		c4.7-0.6,9.5-0.7,14.2-0.4c1.6,0.1,3.6,2,4.3,3.5c1.2,2.8,2.9,4.2,5.9,4.3c2,1.2,4,2.5,5.3,3.3c-1.1,2.6-2.1,4.5-2.8,6.5
		c-0.8,2.5-2.1,3.3-4.9,2.8c-4.8-0.9-9.7-1.3-15.2-2c1.4,5.9-2.3,6.9-6.2,7.8c-3.3-0.3-7.2,0.5-9.8-1c-5.3-3-10.6-4-16.4-2.7
		c-3.9,0.9-7.7,2.6-11.6,3.6c-1.7,0.4-3.7,0.4-5.3-0.1c-3.3-1.1-6.4-2.8-9.5-4.2c-0.9-0.6-1.8-1.1-2.7-1.7
		C196.7,267.5,196.4,267.2,196.1,266.9z"/>
	<path class="st11" d="M199.6,237.2c0.3-0.9,0.6-1.9,1-2.8c5.3-1.4,9,2.3,12.9,4.7c3.7,2.2,6.9,3,11,1.5c1.2-0.4,2.8,0.5,4.3,0.7
		c0.9,0.7,1.7,1.5,2.7,2c3.4,1.7,7,3.1,10.3,5c0.9,0.5,1.9,2.7,1.5,3.6c-0.8,2.2-2,5.4-3.7,5.8c-3.5,0.8-7.3,0.2-11-0.1
		c-4.1-0.3-8.3-0.8-12.4-1.3c-1.4-0.2-3.3-0.4-4.1-1.4c-3.6-4.5-7.6-3.3-11.8-1.3C200.1,248.2,199.8,242.7,199.6,237.2z"/>
	<path class="st20" d="M191.7,241.7c0.2,7,0.7,14.1,0.4,21.1c-0.1,1.7-2.5,3.4-3.9,5c-4.5,0-9,0.2-13.5-0.2
		c-1.3-0.1-2.9-1.4-3.4-2.6c-0.4-0.8,0.5-2.6,1.3-3.4c2.7-2.7,2.7-4.8-0.6-7.4c-1.1-0.9-2.4-1.4-3.6-2.1c0.2-1.4,0.3-2.5,0.4-3.7
		c0.9-5.1,6.4-9.2,13.1-9.7c1.9-0.1,3.8-0.1,5.6-0.2c0.3,0.4,0.5,0.8,0.8,1.2C189.5,240.4,190.6,241,191.7,241.7z"/>
	<path class="st23" d="M168.9,248.5c-0.1,1.1-0.3,2.3-0.4,3.7c1.2,0.7,2.5,1.2,3.6,2.1c3.3,2.6,3.3,4.7,0.6,7.4
		c-0.8,0.8-1.7,2.7-1.3,3.4c0.6,1.2,2.2,2.5,3.4,2.6c4.5,0.3,9,0.1,13.5,0.2c0,0,0,0,0,0c0,0.3,0,0.5,0,0.8
		c-0.4,1.2-0.8,2.4-1.1,3.6c-5.8-0.8-11.7-1.7-17.5-2.6c-2.2-0.4-3.1-1.5-2.6-4c0.7-3.2-0.1-6.1-3.5-7.6c-2.8-1.2-1.9-3.4-0.7-5.1
		C164.1,250.7,164.7,246.8,168.9,248.5z"/>
	<path class="st17" d="M196.7,233.6c-0.2-3.6-0.7-7.2-0.6-10.8c0.1-9.9,0.5-19.7,0.8-29.6c0.6,0.9,1.3,1.7,1.9,2.6
		c-0.3,1.5-0.8,3-0.8,4.5c-0.1,9.5,0,18.9-0.1,28.4C197.8,230.4,197.1,232,196.7,233.6z"/>
	<path class="st14" d="M188.4,239.8c-0.3-0.4-0.5-0.8-0.8-1.2c-0.1-4.8-0.3-9.7-0.1-14.5c0-1.5,1.1-3.1,1.6-4.6
		c1.6-0.1,3.3-0.2,2.5,2.4c-0.5,5.1-0.9,10.3-1.6,15.4C190,238.2,189,239,188.4,239.8z"/>
	<path class="st14" d="M193.5,194.9c-0.6,1.6-1.1,3.3-1.8,5.2c-0.4-0.2-1.1-0.6-3.2-1.8c0.8,5,1.4,9.1,2.1,13.2
		c0.4,2.3,1.2,4.7-2.2,5.4c-0.3-5.3-0.8-10.6-0.9-15.9C187.3,195.2,187.4,195.2,193.5,194.9z"/>
	<path class="st24" d="M196.7,233.6c0.4-1.6,1.1-3.2,1.1-4.9c0.1-9.5,0-18.9,0.1-28.4c0-1.5,0.6-3,0.8-4.5c0,9.1,0,18.3,0,27.4
		c0,2.3-0.2,4.7,0.1,7c0.2,1.5,1.1,2.8,1.7,4.2c-1.1,0-2.2,0-3.3,0C197.1,234.2,196.9,233.9,196.7,233.6z"/>
	<path class="st25" d="M285.7,244.1c-1.2,0.6-2.3,1.2-3.5,1.8C283.4,245.3,284.5,244.7,285.7,244.1z"/>
	<path class="st26" d="M222.8,228.2c0-0.1-0.1-0.2-0.1-0.4c0.2,0,0.3-0.1,0.5-0.1c0,0.1,0,0.3,0,0.4
		C223.1,228.2,222.9,228.1,222.8,228.2z"/>
	<path class="st27" d="M319.8,451.2c-1.8-0.3-3.6-0.7-5.5-1c0.3,2,0.7,4,1.1,6.5c-3.1,2.4-5.9,0.9-8.5-2.1c0-6.3,0-12.6,0-18.8
		c-0.7,0-1.3,0-2,0c0,4.9,0,9.7,0,14.6c-0.6-0.5-1.2-1.1-1.8-1.6c0-20.4,0-40.8,0-62.1c-16.8,1.9-33,3.8-50.4,5.9
		c0.5-15.5,0.9-30.6,1.3-45.7c2.7,0.2,5.4,0.6,8.2,0.7c3.6,0.1,7.3-0.1,10.9-0.1c8.9,1.6,17.9,1.1,26.9,1.4c3,0.1,6.1,0,8.8,0.9
		c8.8,3,18,1.3,26.9,3.2c3.3,0.6,6.5,1.2,9.8,1.8c0.2,1.2,0.4,2.3,0.6,3.5c-0.2,0.1-0.4,0.2-0.7,0.2c-0.5-0.7-1-1.4-1.6-2.3
		c-1.3,1.8-2.4,3.5-3.6,5.2c-5-0.6-9.9-1.1-14.9-1.7c-0.6,0-1.2,0-1.8,0c-5.6-0.5-11.1-1-16.7-1.5c-3.1-0.3-6.2-0.7-9.6-1
		c0,5.1,0,9.6,0,14.1c0.6,0.9,1,2.5,1.7,2.5c4.4,0.4,8.8,0.6,13.3,0.8c4.4,0.3,8.7,0.6,13.1,0.9c5,0.3,10,0.6,15,1
		c1.5,0.1,2.9,0.3,4.4,0.4c0.6,0.2,1.2,0.5,1.7,0.7c-0.5,1-0.7,2.3-1.5,2.9c-2.2,1.5-11.2,0.2-13.3-1.7c-0.3,3-0.7,6-1,9
		c-4.7-0.2-9.4-0.5-14.2-0.7c-2.5-0.1-4.9,0-7.4,0c0,0.4,0,0.7,0,1.1c12,0.5,24,1,36,1.5c0,8.5,0,16.9,0,26
		c-1.1-1.2-1.6-2.2-2.5-2.6c-2.9-1.4-3.9-2.8-0.9-5.3c0.9-0.7,0.9-2.4,1.4-4.1c-4.6,0.9-8.5,1.7-12.4,2.4c0.1,0.5,0.2,1,0.3,1.5
		c1.2,0.2,2.7,0.2,3.6,0.8c0.9,0.6,1.9,2,1.8,2.9c-0.1,1-1.6,2.7-2.3,2.5c-5.7-1-6.7,5.6-11.1,6.6c-1.6,0.3-3.2,1.7-4.6,1.5
		c-1.1-0.1-2.5-1.8-2.8-3c-0.6-2.3-0.6-4.9-0.9-7.3c-0.3-1.3-0.6-2.6-0.9-4c-0.3,0-0.6,0.1-0.8,0.1c0,6.8,0,13.7,0,20.5
		c-0.6,1.2-1.2,2.4-1.7,3.7c-0.4,4.5-0.8,9-1.2,13.6c4,0.5,7,0.8,10,1.2C319.9,448.4,319.9,449.8,319.8,451.2z M314.9,395.8
		c-0.5-0.1-1-0.2-1.5-0.3c-0.1,2.6-0.3,5.2-0.4,7.8c0.3,0,0.6,0.1,0.9,0.1C314.2,400.8,314.5,398.3,314.9,395.8z"/>
	<path class="st28" d="M139.1,454.9c-0.9,0.3-1.8,0.5-2.7,0.8c-0.3-2-0.4-4-0.9-5.9c-0.3-1.3-1-2.4-1.6-3.6c0.9-5.2,0.5-11,6.9-13.2
		c0.5,2.7,1,5.5,1.5,8.2c1.7-2,2.3-4.3,3.4-6.3c0.6-1.1,2-1.8,3.1-2.6c0.6,1.2,1.3,2.3,1.7,3.5c0.5,1.6,0.7,3.2,1,4.8
		c0.5,0.1,1,0.2,1.5,0.3c1.2-4.3,1.4-9.6,8.3-8c0,2.5,0,5.3,0,8.1c0.4,0.1,0.7,0.2,1.1,0.3c0.6-1.3,1.9-2.7,1.7-3.9
		c-0.5-4.6,2.5-4.9,5.6-5.3c0.5,15.5-0.1,18.9-4.1,20.7c0-3.9,0-7.6,0-11.3c-0.3,0-0.5,0-0.8,0c-0.4,3-0.5,6.1-1.3,9
		c-0.3,1.1-2,2.6-3,2.6c-4.4,0-8.7-1-13-0.7C144.6,452.4,141.9,453.9,139.1,454.9z"/>
	<path class="st21" d="M212.8,362.9c6.8-1.5,13.6-3,20.5-4.5c0.1,0,0.2,0.1-0.3-0.2c0,5.6,0,10.9,0,16.8c-9.6,1.5-19.2,3-28.8,4.5
		c0.1-4.6-0.5-9.3,0.4-13.8c0.6,0,1.2,0,1.8,0c0.2,2.9,0.5,5.9,0.7,8.8c0.3,0,0.5,0,0.8,0c0.5-3.3,0.9-6.6,1.5-10.8
		c4.7,4.1,1.5,8.8,3.6,13.4C212.8,371.7,212.8,367.3,212.8,362.9z"/>
	<path class="st29" d="M250.6,453.2c-0.1,0-0.3,0-0.4,0.1c-10.9,2.5-11.9,1.8-12-9.3c0-2.2-0.6-4.5-0.9-6.7c0-2-0.1-4.1,0.2-6.1
		c0.3-2,0.7-5.5,1.5-5.6c3.5-0.5,7.2-0.2,10.8,0.1c0.4,0,0.8,2,0.8,3.1c0.2,4.1,0.4,8.1,0.5,12.2
		C250.9,445.1,250.8,449.1,250.6,453.2z"/>
	<path class="st29" d="M269.7,445c-0.8-2.6-1.5-5.2-2.3-7.7c-0.2-0.1-0.4-0.1-0.6-0.2c-0.1,2.1-0.3,4.2-0.4,6.3
		c0,8.2-3.3,11.4-11.4,11.5c1.1-1.4,2-3.2,3.5-4.2c3-2,4.1-11.1,1.1-12.1c-3-1-2.5-2.9-2.8-5c-0.4-2.3-1.4-4.6-2.2-6.9
		c2.8-0.8,5.6-2,8.5-2.3c6-0.6,6-0.4,6.1,5.5C269.1,434.9,269.4,440,269.7,445z"/>
	<path class="st29" d="M169.7,432c-3.1,0.4-6.1,0.7-5.6,5.3c0.1,1.2-1.1,2.6-1.7,3.9c-0.4-0.1-0.7-0.2-1.1-0.3c0-2.8,0-5.6,0-8.1
		c-6.9-1.6-7.1,3.8-8.3,8c-0.5-0.1-1-0.2-1.5-0.3c-0.3-1.6-0.5-3.3-1-4.8c-0.4-1.2-1.1-2.3-1.7-3.5c-1.1,0.9-2.5,1.5-3.1,2.6
		c-1.1,2-1.6,4.3-3.4,6.3c-0.5-2.7-1-5.5-1.5-8.2c0-1.2-0.1-2.5-0.1-3.7c0-0.2,0.1-0.5,0.1-0.7c9.4,0,18.7,0,28.7,0
		C169.5,429.3,169.6,430.7,169.7,432z"/>
	<path class="st13" d="M140.7,429.2c0,1.2,0.1,2.5,0.1,3.7c-6.4,2.3-6,8.1-6.9,13.2c-0.1,1.1-0.1,2.2-0.2,3.4c-0.5,0-1-0.1-1.5-0.1
		c0-2.6,0-5.2-0.1-7.8c0.3-3.1,0.6-6.1,0.8-9.1c-4.9-0.2-6.6,2-6.4,6.1c0,1.3-1,2.6-1.6,3.9c-0.6,0-1.3,0-1.9,0c0,0-0.1,0.1-0.1,0.1
		c-0.2-0.9-0.5-1.8-0.7-2.7c-0.2,0-0.4,0-0.6,0c-0.1,0.8-0.2,1.5-0.3,2.3c-0.9,0-1.7,0.1-2.6,0.1c0-3.7,0-7.5,0.1-11.2
		c1.2-0.6,2.4-1.2,3.6-1.7c4-0.4,8.1-0.7,12.1-1.1c0.6,0,1.2,0,1.8,0c0.9,0,1.8,0,2.6,0C139.6,428.8,140.2,429,140.7,429.2z"/>
	<path class="st21" d="M235.7,373.9c0-4.7-0.4-8.8,0.2-12.8c0.3-1.6,2.5-3.4,4.2-4.2c1.9-0.9,4.2-0.7,6.9-1.1
		c0,5.1,0.1,9.9-0.1,14.7c0,0.9-1.4,2.3-2.4,2.5C241.9,373.6,239.1,373.6,235.7,373.9z"/>
	<path class="st28" d="M254.4,426.6c0.8,2.3,1.8,4.5,2.2,6.9c0.4,2.1-0.2,4,2.8,5c3.1,1,1.9,10.1-1.1,12.1c-1.4,1-2.3,2.8-3.5,4.2
		c-0.6,0.8-1.2,1.5-1.8,2.3c-0.5,0-1.1-0.1-1.6-0.1c-0.3-1.3-0.6-2.6-1-3.8c0.2-4.1,0.3-8.2,0.5-12.2c1-2.2,2.4-4.3,3-6.6
		C254.6,431.9,254.3,429.2,254.4,426.6z"/>
	<path class="st30" d="M193.7,384.3c0.2-8.7,0.5-17.4,0.7-26.1c0.2-10.7,0.2-21.4,0.3-32.2c0.6-0.1,1.2-0.1,1.8-0.2
		c0.5,2,0.9,4,1.4,6.1c0,0.6,0,1.3,0,1.9c-0.5,2.2-1.4,4.5-1.4,6.7c0.2,7.1,0.8,14.1,1.3,21.2c0.2,1.3,0.4,2.5,0.5,3.8
		c0.1,3.8,0.2,7.5,0.3,11.3c0.2,1.3,0.5,2.6,0.7,3.9l-0.1-0.2c0,0-0.2,0.1-0.2,0.1C197.3,381.8,195.5,383,193.7,384.3z"/>
	<path class="st13" d="M207.2,450.5c1.7,4,1.1,5.2-2.9,5.2c-6.1,0.1-12.1,0-18.6,0c0-3.7,0-7,0-10.3c1.7,2.8,3.5,4.9,6.7,1.6
		c1.6,4,4.2,5,7.7,3.4c1.5-0.7,3.3-0.8,5-1.2C205.8,449.7,206.5,450.1,207.2,450.5z"/>
	<path class="st21" d="M189.9,367.5c0-2.9,0-5.7,0-8.6c0.5,0,1.1,0,1.6,0c0,8.3,0,16.6,0,24.9c-0.7,0-1.5,0-2.2,0
		c-2.1-0.1-4.3-0.1-6.4-0.2c0.9-4.5-1.7-9.6,2.2-14.2c1.1,1.6,1.8,2.6,2.4,3.7c0.4,0,0.9,0.1,1.3,0.1
		C189.2,371.2,189.6,369.4,189.9,367.5z"/>
	<path class="st21" d="M184.8,443.5c-0.2,2.4-0.3,4.7-0.5,7.1c-1.8,0.5-3.5,1-5.3,1.6c-1.1,0.4-2.3,0.8-3.4,1.2
		c-0.8-1.2-2.3-2.4-2.4-3.7c-0.3-4.2-0.3-8.4,0.1-12.6c0.1-1.1,1.7-2.1,2.6-3.2c0.6,1.1,1.5,2.3,1.6,3.5c0.2,2.7,0.1,5.5,0.1,9.2
		c2.7-1.5,4.9-2.6,6.9-3.7C184.6,442.7,184.7,443.1,184.8,443.5z"/>
	<path class="st19" d="M193.7,384.3c1.8-1.3,3.6-2.5,5.4-3.8c0.2,0.8,0.4,1.6,0.7,2.4c-0.3,1.1-0.6,2.2-0.8,3.3
		c-4.5,9.8-3.3,20.4-3.8,30.8c-0.5,0-0.9,0-1.4,0C193.7,406.1,193.7,395.2,193.7,384.3z"/>
	<path class="st15" d="M136.4,428.5c-0.6,0-1.2,0-1.8,0c0.1-6.3,0.2-12.5,0.3-18.8c0.2-12.2,0.3-24.4,0.5-36.6c0.4-5,0.7-10,1-14.6
		c0.6,0.3,0.6,0.3,0.8,13.8C137,391,136.7,409.8,136.4,428.5z"/>
	<path class="st29" d="M198.6,376.8c-0.1-3.8-0.2-7.5-0.3-11.3c4.8-0.9,9.6-1.8,14.5-2.7c0,4.4,0,8.9,0,14.3
		c-2.1-4.6,1.1-9.3-3.6-13.4c-0.6,4.2-1,7.5-1.5,10.8c-0.3,0-0.5,0-0.8,0c-0.2-2.9-0.5-5.9-0.7-8.8c-0.6,0-1.2,0-1.8,0
		c-0.9,4.5-0.3,9.2-0.4,13.8c-0.6,0.2-1.2,0.4-1.8,0.6c0-4.5,0-9.1,0-13.6c-0.5-0.1-1-0.2-1.4-0.2c-0.4,1.4-0.9,2.9-1.2,4.3
		C199.2,372.6,199,374.7,198.6,376.8z"/>
	<path class="st13" d="M197,437.3c-0.4-3.3,1.2-4.5,4.3-4.3c3.4,0.1,6.7,0.2,10.1,0c3.3-0.2,4.6,1.1,4,4.3c-3.5,0.4-7,0.7-10.5,1.1
		c-1.4,0-2.9-0.1-4.3-0.1C199.9,436.1,198.7,435.9,197,437.3z"/>
	<path class="st28" d="M190.8,304.6c-0.3-2.6-0.5-5.2-0.8-7.8c0-5.3-0.1-10.5,0-15.8c0.1-4,0.5-8,0.7-12.6c3,4.2,2.5,7.9,2.1,12
		c-0.6,7.4-0.2,15-0.3,22.4c0,1.2-0.5,2.5-0.8,3.7C191.4,305.8,191.1,305.2,190.8,304.6z"/>
	<path class="st15" d="M191.6,396.9c0,11.5,0,23,0,34.5c-0.6,0-1.2,0-1.9,0c-0.5-11.5-1-23-1.6-34.4
		C189.3,396.9,190.5,396.9,191.6,396.9z"/>
	<path class="st18" d="M198.9,386.2c0.3-1.1,0.6-2.2,0.8-3.3c3.9,0.3,7.8,0.4,11.7,0.9c1.5,0.2,4.1,1.1,4.2,1.9
		c0.1,1.7-1.1,3.4-1.9,5.8C209.5,385.2,203.7,387.2,198.9,386.2z"/>
	<path class="st24" d="M197,267.8c0.9,0.6,1.8,1.1,2.7,1.7c-0.2,1.2-0.5,2.4-0.7,3.6c0,2.9,0,5.9,0,8.8c0,1.6,0,3.2-0.2,4.7
		c-0.3,4.2-0.6,8.5-0.9,12.7c-0.3,0-0.6,0-0.9,0c-0.2-2.1-0.5-4.1-0.7-6.2c-0.1-1.5-0.2-2.9-0.3-4.4c0.1-2.9,0.2-5.8,0.3-8.6
		c2.4-3,2.3-6,0-9c-0.1-1.1-0.1-2.2-0.2-3.3c0,0,0.4,0,0.4,0L197,267.8z"/>
	<path class="st17" d="M205.1,449.3c-1.7,0.4-3.5,0.5-5,1.2c-3.5,1.7-6.1,0.6-7.7-3.4c0.9-1.2,1.9-2.5,2.8-3.7
		c2.4,0.6,4.7,1.2,7.1,1.8C203.2,446.6,204.2,447.9,205.1,449.3z"/>
	<path class="st28" d="M212.1,447.7c-0.2-0.5-0.3-1.1-0.5-1.6c0.4-0.7,0.7-1.5,1.2-2.2c0.7-1.1,1.4-2.7,2.4-2.9
		c1.1-0.2,2.6,0.7,3.6,1.5c1.7,1.6,3,3.4,4.5,5.2C219.6,447.8,215.9,447.8,212.1,447.7z"/>
	<path class="st31" d="M197,299.4c0.3,0,0.6,0,0.9,0c0.3,1.7,0.7,3.5,1,5.2c0,0.4,0,0.7,0,1.1c-0.4,8.7-0.8,17.4-1.1,26.2
		c-0.5-2-0.9-4-1.4-6.1c0-1.6-0.1-3.2-0.1-4.8c-0.1-4.9-0.1-9.9-0.1-14.8c0.2-1.2,0.3-2.4,0.5-3.6
		C196.7,301.5,196.9,300.5,197,299.4z"/>
	<path class="st15" d="M190.8,304.6c0.3,0.6,0.6,1.2,1,1.9c0.3,3.2,0.7,6.5,0.8,9.7c0.1,3.1-2.4,2.6-4.3,2.6
		c-0.3-0.6-0.6-1.2-0.9-1.8c0.9-0.7,1.7-1.4,2.6-2.1c-0.9-0.4-1.8-0.9-2.7-1.3c0-1.2-0.1-2.4-0.1-3.6
		C188.4,308.2,189.6,306.4,190.8,304.6z"/>
	<path class="st14" d="M296.9,451c-1.4-0.2-2.8-0.4-4.2-0.6c-0.8-4.5-4.8-3.3-7.5-4c-0.4-0.1-1.4,2.1-2.1,3.3
		c-1.7-4.9-1.4-5.2,5.9-5.6c3.4,0.7,7.4,0.2,9,4.6C297.6,449.5,297.3,450.3,296.9,451z"/>
	<path class="st13" d="M211.9,456.5c-5.1-1.5-2-4.8-1.7-7.5c0.8,0.9,1.6,1.8,2.4,2.7c3.6,0.4,7.1,0.8,10.7,1.2
		c0,0.9,0.1,1.7,0.1,2.6C219.6,455.8,215.7,456.1,211.9,456.5z"/>
	<path class="st21" d="M182.1,383.6c-2.3,0.4-4-0.2-3.5-2.8c0.6-3.6-2-7.8,1.8-11c0.6,1.6,1.4,3.1,1.6,4.7
		C182.3,377.5,182.1,380.6,182.1,383.6z"/>
	<path class="st21" d="M198.6,376.8c0.3-2.1,0.6-4.2,1-6.2c0.3-1.5,0.8-2.9,1.2-4.3c0.5,0.1,1,0.2,1.4,0.2c0,4.5,0,9.1,0,13.6
		c-1,0.2-2,0.4-3,0.6C199.1,379.4,198.9,378.1,198.6,376.8z"/>
	<path class="st16" d="M196.2,306.2c0,4.9,0.1,9.9,0.1,14.8c0,1.6,0.1,3.2,0.1,4.8c-0.6,0.1-1.2,0.1-1.8,0.2
		c-0.1-5.6-0.3-11.2-0.2-16.8C194.5,308.2,195.6,307.2,196.2,306.2z"/>
	<path class="st12" d="M191.6,396.9c-1.1,0-2.3,0.1-3.4,0.1c-0.4-0.2-0.7-0.4-1.1-0.6c3.7-3.7-0.1-8.7,2.2-12.6c0.7,0,1.5,0,2.2,0
		C191.6,388.1,191.6,392.5,191.6,396.9z"/>
	<path class="st28" d="M188.4,239.8c0.6-0.9,1.6-1.7,1.7-2.6c0.6-5.1,1.1-10.2,1.6-15.4c0.4,0.5,1.3,1.1,1.3,1.6
		c-0.3,6-0.8,12.1-1.2,18.1C190.6,241,189.5,240.4,188.4,239.8z"/>
	<path class="st32" d="M202.3,445.2c-2.4-0.6-4.7-1.2-7.1-1.8c-0.7-0.6-1.4-1.3-2.9-2.6c4.4,0,8,0,11.6,0
		C203.3,442.3,202.8,443.8,202.3,445.2z"/>
	<path class="st29" d="M288.4,435.6c-0.3-0.8-0.6-1.6-0.9-2.4c-0.9-2.5,2.2-7.1-3.4-7.2c-2.9-0.1-5.8,0.5-9.2,0.8
		c-0.2-0.3-0.8-1.5-1.4-2.6c3.7,0,7.5,0.1,11.2-0.1c2.8-0.1,4,0.8,3.8,3.7C288.3,430.4,288.4,433,288.4,435.6z"/>
	<path class="st29" d="M175.7,453.4c1.1-0.4,2.2-0.9,3.4-1.2c1.7-0.6,3.5-1.1,5.3-1.6c0,2,0,4,0,6c0,0-0.4,0-0.4,0
		c-3-0.3-6-0.5-9-0.8C175.2,455,175.5,454.2,175.7,453.4z"/>
	<path class="st24" d="M197.8,361.7c-0.5-7.1-1.1-14.1-1.3-21.2c-0.1-2.2,0.9-4.5,1.4-6.7c0.1,2,0.1,4,0.2,6.1c0,1.5,0,3,0.1,4.5
		c0,4.7,0,9.4,0,14C198,359.5,197.9,360.6,197.8,361.7z"/>
	<path class="st21" d="M202.3,445.2c0.5-1.5,1.1-2.9,1.6-4.4c1-0.3,2-0.6,3-0.9c0.6,0,1.1,0,1.7,0c-0.5,3.5-0.9,7-1.4,10.5
		c-0.7-0.4-1.4-0.8-2.1-1.2C204.2,447.9,203.2,446.6,202.3,445.2z"/>
	<path class="st16" d="M212.6,451.6c-0.8-0.9-1.6-1.8-2.4-2.7c0.6-0.4,1.3-0.8,1.9-1.2c3.7,0,7.4,0,11.2,0c1.5,0.6,3,1.2,4.4,1.8
		c-1.1,0.1-2.2,0.1-3.3,0.2C220.4,450.4,216.5,451,212.6,451.6z"/>
	<path class="st13" d="M184.3,439.8c0.8-2,1.3-4.1,2.4-5.9c0.2-0.3,3.3,0.3,3.6,1c1.9,4.5-2.5,4.1-4.7,5.5
		C185.3,440.2,184.8,440,184.3,439.8z"/>
	<path class="st29" d="M182.1,383.6c0-3,0.1-6.1-0.1-9.1c-0.1-1.6-1-3.1-1.6-4.7c3.2-0.8,6.3-1.5,9.5-2.3c-0.3,1.9-0.7,3.7-1,5.6
		c-0.4,0-0.9-0.1-1.3-0.1c-0.7-1-1.4-2-2.4-3.7c-3.9,4.6-1.3,9.7-2.2,14.2c0,0-0.4,0.1-0.4,0.1L182.1,383.6z"/>
	<path class="st28" d="M208.6,440c-0.6,0-1.1,0-1.7,0c-0.7-0.5-1.4-1.1-2-1.6c3.5-0.4,7-0.7,10.5-1.1c-1.7,1.7-3.4,3.4-5,5.1
		C209.8,441.6,209.2,440.8,208.6,440z"/>
	<path class="st15" d="M140.7,429.2c-0.6-0.2-1.1-0.5-1.7-0.7c0.3-9.1,0.6-18.2,0.9-27.4c0-0.8,0.5-1.6,0.8-2.4
		c0,7.3,0,14.6,0.1,21.9c0,2.6,0,5.3,0,7.9C140.8,428.8,140.7,429,140.7,429.2z"/>
	<path class="st29" d="M224.4,449.7c1.1-0.1,2.2-0.1,3.3-0.2c0.6,1.2,1.2,2.4,1.8,3.6c-0.6,0.7-1.2,1.5-1.8,2.2
		c-1.5,0-2.9,0.1-4.4,0.1c0-0.9-0.1-1.7-0.1-2.6C223.6,451.8,224,450.8,224.4,449.7z"/>
	<path class="st31" d="M271.7,452.5c-3.4-1.3-3.2-3.6-1.7-6.2c0.8-0.3,1.7-0.6,2.5-1c1,0,2,0.1,2.9,0.1
		C274.1,447.8,272.9,450.1,271.7,452.5z"/>
	<path class="st18" d="M296.9,451c0.4-0.8,0.7-1.6,1.1-2.3c1.7,0,3.4,0.1,5.1,0.1c0.6,0.5,1.2,1.1,1.8,1.6
		C302.6,453.7,299.8,452.5,296.9,451z"/>
	<path class="st17" d="M273.2,347.4c-3.6,0.1-7.3,0.2-10.9,0.1c-2.7-0.1-5.4-0.5-8.2-0.7c0-0.3-0.1-0.6-0.1-0.9
		C260.4,346.5,266.8,347,273.2,347.4z"/>
	<path class="st19" d="M140.8,420.6c0-7.3,0-14.6-0.1-21.9c0.1-0.4,0.2-0.8,0.2-1.3c0.3,0,0.7,0,1,0
		C141.6,405.2,141.2,412.9,140.8,420.6z"/>
	<path class="st30" d="M196.4,271.2c2.3,3,2.4,6,0,9C196.4,277.2,196.4,274.2,196.4,271.2z"/>
	<path class="st30" d="M197,299.4c-0.1,1-0.2,2.1-0.4,3.1c-3.4-2.7-0.7-6.2-1.3-9.2c0.3,0,0.6,0,0.9-0.1
		C196.5,295.3,196.8,297.4,197,299.4z"/>
	<path class="st13" d="M227.7,455.3c0.6-0.7,1.2-1.5,1.8-2.2c1.4,0.4,2.7,0.8,4.1,1.2c0,0.3,0,0.7,0,1
		C231.6,455.3,229.7,455.3,227.7,455.3z"/>
	<path class="st28" d="M197,437.3c1.7-1.4,2.9-1.2,3.5,1C199.2,438.6,197.4,440.3,197,437.3z"/>
	<path class="st14" d="M196.3,293.3c-0.3,0-0.6,0-0.9,0.1c0.2-1.5,0.4-3,0.7-4.5C196.1,290.3,196.2,291.8,196.3,293.3z"/>
	<path class="st20" d="M188.2,268.6c0.1-0.3,0.1-0.5,0-0.8C188.2,268,188.2,268.3,188.2,268.6z"/>
	<path class="st17" d="M253.1,345.2c0.3,0.3,0.7,0.5,1,0.8C253.7,345.7,253.4,345.5,253.1,345.2z"/>
	<path class="st14" d="M197,267.8l-0.4,0.1c0,0-0.4,0-0.4,0c0-0.3,0-0.6,0-0.9C196.4,267.2,196.7,267.5,197,267.8z"/>
	<path class="st11" d="M330.6,388c0.3-3,0.7-6,1-9c2.1,1.9,11.1,3.2,13.3,1.7c0.8-0.5,1-1.9,1.5-2.9c4.6-0.1,9.3-0.2,13.9-0.3
		c1.8,0.3,3.6,0.6,5.4,0.9c0.9-1,2.4-2,2.5-3.1c0.3-3,0-6.1-0.1-9.1c0.5-2.7-0.8-3.6-3.4-3.5c-2.3,0.1-4.6-0.3-6.9-0.5
		c-5.8-0.2-11.7-0.3-17.5-0.5c1.2-1.7,2.4-3.4,3.6-5.2c0.6,0.8,1.1,1.6,1.6,2.3c0.2-0.1,0.4-0.2,0.7-0.2c-0.2-1.2-0.4-2.3-0.6-3.5
		c11.1,0.6,22.2,1.2,33.3,1.8c0,0.3,0.1,0.5,0.2,0.8c0.2,5.2,0.5,10.4,0.7,15.6c0,5.6,0.1,11.2,0.1,16.7c-2.9,0.3-5.8,0.5-8.7,0.8
		c-0.3-1.7-0.6-3.5-0.8-5.2c-0.3,0.1-0.7,0.2-1,0.2c0.2,1.4,0.5,2.7,0.7,4.1c-7.1,0-14.2,0-21.3,0c0,0.2,0,0.5,0,0.7
		c7.1,0.4,14.2,0.8,21.3,1.2c0,11.1,0,22.1,0,33.2c-2.1,0.1-4.3,0.2-6.6,0.3c0,1.6,0,2.8,0,4.1c-0.1,3.9-0.2,7.7-0.2,11.6
		c-0.9-1.4-1.8-2.8-2.8-4.1c-0.9-1.2-1.8-2.4-2.8-3.6c-1.3,0.3-2.7,0.5-4,0.8c-0.2-0.1-0.5-0.1-0.8-0.1c-0.9-0.6-1.8-1.6-2.8-1.7
		c-4.4-0.1-8.8,0-13.3,0.1c-3.2,0.2-6.5,0.3-9.7,0.5c2.7-0.8,5.4-1.6,8-2.3c-1.6-1.3-3.1-2.9-4.8-4.1c-3.1-2.1-4.7-1.2-5,2.5
		c-0.1,1-0.6,2.1-0.9,3.1c-0.6-0.1-1.2-0.1-1.8-0.2c0.2-0.6,0.5-1.3,1.2-3.4c-3.4,1.5-5.8,2.5-8.2,3.5c-1.5,0.1-3,0.3-4.5,0.4
		c0.6-1.2,1.2-2.4,1.7-3.7c0.3-2.6,0.6-5.3,0.9-7.9c0.3-2.9,0.6-5.9,0.9-8.8c0.3,2.4,0.2,5,0.9,7.3c0.3,1.2,1.8,2.9,2.8,3
		c1.5,0.2,3-1.2,4.6-1.5c4.4-0.9,5.4-7.5,11.1-6.6c0.6,0.1,2.2-1.6,2.3-2.5c0.1-0.9-0.9-2.3-1.8-2.9c-1-0.6-2.4-0.6-3.6-0.8
		c-0.1-0.5-0.2-1-0.3-1.5c3.9-0.8,7.7-1.5,12.4-2.4c-0.5,1.6-0.5,3.4-1.4,4.1c-3,2.5-2,3.9,0.9,5.3c0.8,0.4,1.4,1.4,2.5,2.6
		c0-9.1,0-17.6,0-26C340.2,389.3,335.4,388.6,330.6,388z"/>
	<path class="st30" d="M371.1,390.7c2.9-0.3,5.8-0.5,8.7-0.8c10.4,0.8,20.9,1.5,31.3,2.3c0.7,0.1,1.3,0.7,2,1.1
		c-12-0.5-23.9-1-35.9-1.5c-2-0.1-4.1,0-6.1-0.1C371.2,391.4,371.1,391,371.1,390.7z"/>
	<path class="st17" d="M199.7,339c-0.6,0.3-1.2,0.5-1.7,0.8c-0.1-2-0.1-4-0.2-6.1c0-0.6,0-1.3,0-1.9c0.4-8.7,0.8-17.4,1.1-26.2
		c0.5,3.1,1.5,6.3,1.5,9.4C200.4,323.1,200,331,199.7,339z"/>
	<path class="st17" d="M378.8,356.7c-11.1-0.6-22.2-1.2-33.3-1.8c-3.3-0.6-6.5-1.2-9.8-1.8c10.7,0.8,21.4,1.6,32,2.5
		C371.5,355.8,375.1,356.3,378.8,356.7z"/>
	<path class="st30" d="M425.6,392.6c1.4,0.3,2.8,0.6,4.2,0.9c-0.5,0.5-1.1,1.4-1.6,1.3c-4.8-0.4-9.6-1-14.3-1.5
		C417.8,393.1,421.7,392.9,425.6,392.6z"/>
	<path class="st17" d="M379.7,373.1c-0.2-5.2-0.5-10.4-0.7-15.6C379.2,362.7,379.4,367.9,379.7,373.1z"/>
	<path class="st33" d="M318.2,324.9c-0.9-0.6-1.7-1.2-2.6-1.8C316.4,323.7,317.3,324.3,318.2,324.9z"/>
	<path class="st22" d="M307.7,248.5c-0.9-1.2-1.7-2.4-2.6-3.5C305.9,246.1,306.8,247.3,307.7,248.5z"/>
	<path class="st34" d="M187.2,313.5c0.9,0.4,1.8,0.9,2.7,1.3c-0.9,0.7-1.7,1.4-2.6,2.1C187.3,315.8,187.3,314.7,187.2,313.5z"/>
	<path class="st13" d="M373.5,457.4c-0.6-4.7-1.2-9.3-1.7-14c4.1-0.4,8.1-0.8,12.2-1.2c0.4,0.4,0.8,0.8,1.2,1.2
		c1,3.6-0.5,8.7,5.7,8.8c-0.8,1.4-1.7,2.9-2.5,4.3C383.4,456.9,378.5,457.2,373.5,457.4z"/>
	<path class="st10" d="M404.3,456.6c-1.6-0.3-3.3-0.7-4.9-1c-0.7-4.6-1.5-9.2-1.8-13.9c0-0.5,2.7-1.8,3.9-1.5
		c1.1,0.3,2.4,2.1,2.5,3.3C404.4,447.8,404.2,452.2,404.3,456.6z"/>
	<path class="st21" d="M385.1,443.5c-0.4-0.4-0.8-0.8-1.2-1.2c0-2.6,0-5.3,0-7.9c-0.1-3.4-1.6-5.1-5.2-5c-2.6,0.1-5.3-0.1-7.9-0.2
		c0-1.2,0-2.4,0-3.5c0.3-0.2,0.6-0.5,0.8-0.7c5,0.3,10,0.6,14.9,0.9c0,4.5,0.1,8.9-0.1,13.4C386.5,440.7,385.6,442.1,385.1,443.5z"
		/>
	<path class="st10" d="M385.1,443.5c0.5-1.4,1.4-2.8,1.5-4.2c0.2-4.5,0.1-8.9,0.1-13.4c0.5,1.2,1.5,2.3,1.5,3.5
		c0.2,4.5,0.1,9,0.1,13.8c1.3,0.1,2.4,0.1,3.2,0.2c-0.2,3.1-0.4,6-0.6,8.9C384.7,452.2,386.1,447,385.1,443.5z"/>
	<path class="st19" d="M371.8,425c-0.3,0.2-0.6,0.5-0.8,0.7c-0.3-0.3-0.7-0.5-1-0.8c0-11.1,0-22.1,0-33.2c0-0.7,0-1.3,0-2
		c-0.2-1.4-0.5-2.7-0.7-4.1c0.3-0.1,0.7-0.2,1-0.2c0.3,1.7,0.6,3.5,0.8,5.2c0,0.4,0.1,0.7,0.1,1.1
		C371.4,402.8,371.6,413.9,371.8,425z"/>
	<path class="st10" d="M135.4,373.1c-0.2,12.2-0.3,24.4-0.5,36.6c-0.1,6.3-0.2,12.5-0.3,18.8c-4,0.4-8.1,0.7-12.1,1.1
		c0.5-14,1-28,1.3-42c0-1.6-0.9-3.6-2.1-4.8c-2.1-2.2-1.5-5.9,1.8-6.9C127.5,374.7,131.5,374,135.4,373.1z"/>
	<path class="st35" d="M408.7,173c-0.6,0.3-1.2,0.6-1.7,0.9C407.5,173.6,408.1,173.3,408.7,173z"/>
	<path class="st35" d="M406.9,173.9c-0.3,0.3-0.6,0.6-0.9,0.9C406.3,174.5,406.6,174.2,406.9,173.9z"/>
	<path class="st15" d="M283.1,449.7c0.7-1.1,1.7-3.4,2.1-3.3c2.8,0.7,6.8-0.5,7.5,4c-2.1,0.2-4.3,0.6-6.4,0.6
		C285.3,451,284.2,450.2,283.1,449.7z"/>
	<path class="st15" d="M327,432.7c3.2-0.2,6.5-0.3,9.7-0.5c3.6,0.7,4.8,2.9,4.4,6.4c-0.2,1.8,0,3.7,0,5.6c-1.5,0.4-3.1,0.7-4.6,1.1
		c-3.6,0-7.3,0-9.9,0c2.5-1.6,5.3-3.5,8.7-5.6c-1.9-0.6-3.3-1.1-4.8-1.6c-0.2,0.2-0.4,0.4-0.5,0.6c-0.6,1.8,0.7,4.9-3,4.7
		c-3.7-0.2-2.4-3-2.5-5c-0.2-1.9,0-3.8,0.1-5.7C325.3,432.7,326.2,432.7,327,432.7z"/>
	<path class="st27" d="M352.7,433.8c0.3,0,0.5,0,0.8,0.1c3.7,1.6,2.9,5,2.9,8c0,1.7-0.4,3.3-0.6,5c0,0,0.1,0.1,0.1,0.1
		c-0.3,0.2-0.6,0.4-0.9,0.6c0.3,0.2,0.6,0.5,0.9,0.7c0.2,0.2,0.4,0.4,0.6,0.6c0,2.5,0,5.1,0,7.6c-3.1,0-6.2,0.1-9.2,0.1
		c-1.8-3.7-4.3,0.6-6.3-0.6c-0.9-0.4-1.8-0.8-2.7-1.1c1.5-0.9,3.1-1.7,4.6-2.6c1-1.5,1.9-2.9,3.3-5c7-1.2,7.4-1.7,5.5-8
		C352,437.4,352.4,435.6,352.7,433.8z M354,450l0.3,0.2l0.1-0.3L354,450z"/>
	<path class="st19" d="M351.7,439.2c2,6.4,1.6,6.9-5.5,8c-1.4,2.1-2.4,3.6-3.3,5c-1.4-1.5-2.9-3-4.3-4.6c-0.7-0.8-1.4-1.6-2.1-2.4
		c1.5-0.4,3.1-0.7,4.6-1.1c0.8-0.6,2.1-1,2.2-1.7c0.5-2.9,0.6-5.9,0.9-9.1c2.2,0,4.6,0,7.1,0C351.5,435.6,351.6,437.4,351.7,439.2z"
		/>
	<path class="st19" d="M311.2,432.2c1.5-0.1,3-0.3,4.5-0.4c1.3,0.4,2.6,0.7,3.9,1.1c1.9,4.7,1.9,9.4,0.4,14.1c-3-0.4-6-0.7-10-1.2
		C310.4,441.2,310.8,436.7,311.2,432.2z"/>
	<path class="st27" d="M327,432.7c-0.8,0-1.7,0-2.5,0c-0.1-0.3-0.1-0.6-0.1-0.8c0.3-1,0.8-2,0.9-3.1c0.3-3.7,1.9-4.6,5-2.5
		c1.7,1.2,3.2,2.7,4.8,4.1C332.4,431.2,329.7,431.9,327,432.7z"/>
	<path class="st15" d="M338.6,447.7c1.4,1.5,2.9,3,4.3,4.6c-1.5,0.9-3.1,1.7-4.6,2.6C338.4,452.5,338.5,450.1,338.6,447.7z"/>
	<path class="st27" d="M319.5,432.9c-1.3-0.4-2.6-0.7-3.9-1.1c2.4-1,4.8-2,8.2-3.5c-0.8,2.2-1,2.8-1.2,3.4
		C321.6,432.1,320.6,432.5,319.5,432.9z"/>
	<path class="st18" d="M125,442.6c0.6-1.3,1.6-2.6,1.6-3.9c-0.1-4.2,1.5-6.3,6.4-6.1c-0.3,2.9-0.6,6-0.8,9.1
		c-0.7,2.1-1.4,4.2-2.2,6.3c-1.3-0.1-2.6-0.2-4-0.3C125.7,445.9,125.4,444.3,125,442.6z"/>
	<path class="st12" d="M125,442.6c0.4,1.6,0.7,3.3,1.1,4.9c1.3,0.1,2.6,0.2,4,0.3c0.7,3.1-0.3,4.7-3.7,4.3c-1.3-0.1-2.6-0.1-3.8-0.2
		c0.2-3.1,0.4-6.2,0.6-9.3C123.7,442.7,124.4,442.7,125,442.6z"/>
	<path class="st18" d="M132.3,449.4c0.5,0,1,0.1,1.5,0.1c-0.5,0.9-1.1,1.8-1.6,2.7C132.1,451.3,132.2,450.4,132.3,449.4z"/>
	<path class="st18" d="M121.4,442.4c0.1-0.8,0.2-1.5,0.3-2.3c0.2,0,0.4,0,0.6,0c0.2,0.9,0.5,1.8,0.7,2.7
		C122.5,442.6,122,442.5,121.4,442.4z"/>
	<path class="st17" d="M357.5,433.1c0.9,1.2,1.9,2.4,2.8,3.6c1,1.4,1.9,2.8,2.8,4.1c0.4,0.4,0.8,0.8,1.3,1.2
		c-0.2,2.8-0.4,5.6-0.6,8.4c-1.9-3-3.8-5.9-5.7-8.9C357.9,438.8,357.7,435.9,357.5,433.1z"/>
	<path class="st14" d="M358.1,441.6c1.9,3,3.8,5.9,5.7,8.9c0.9,1.8,1.9,3.5,2.8,5.3c-0.8,0-1.6,0-2.4,0c-1.1-2.1-2.2-4.2-3.6-7
		c-0.7,1.5-1,2.1-1.3,2.7C358.8,448.2,358.5,444.9,358.1,441.6z"/>
	<path class="st16" d="M356.6,448.9c-0.2-0.2-0.4-0.4-0.6-0.6c0-0.4,0-0.9,0-1.3c0,0-0.1-0.1-0.1-0.1
		C356.1,447.5,356.3,448.2,356.6,448.9z"/>
	<path class="st10" d="M364.4,442c-0.4-0.4-0.8-0.8-1.3-1.2c0.1-3.9,0.2-7.7,0.2-11.6c2.5,0,5,0,7.5,0c2.6,0.1,5.3,0.3,7.9,0.2
		c3.5-0.1,5.1,1.6,5.2,5c0,2.6,0,5.3,0,7.9c-4.1,0.4-8.1,0.8-12.2,1.2c-0.3,0-0.5,0-0.8,0C368.8,443,366.6,442.5,364.4,442z"/>
	<path class="st13" d="M364.4,442c2.2,0.5,4.4,1,6.7,1.5c-0.1,3.6,0.1,7.2-0.4,10.8c-0.2,1.2-1.8,2.2-2.8,3.3
		c-0.4-0.6-0.9-1.2-1.3-1.8c-0.9-1.8-1.9-3.5-2.8-5.3C364,447.7,364.2,444.8,364.4,442z"/>
	<path class="st23" d="M255,275.7c-6.7,1.7-12.9,5.5-20.3,1.6c-6.1-3.1-12.8-3.1-19.3,0.1c-3,1.5-5.7,0.7-8.6-1.1
		c-2.4-1.5-5.3-2.2-7.9-3.3c0.2-1.2,0.5-2.4,0.7-3.6c3.2,1.4,6.3,3.1,9.5,4.2c1.6,0.6,3.7,0.6,5.3,0.1c3.9-1,7.7-2.7,11.6-3.6
		c5.7-1.3,11-0.3,16.4,2.7c2.6,1.5,6.5,0.7,9.8,1C253.2,274.5,254.1,275.1,255,275.7z"/>
	<path class="st30" d="M199.6,237.2c0.2,5.5,0.5,11,0.7,16.5c-0.4,1-0.8,2-1.1,3c-0.3,0-0.5-0.1-0.8-0.1
		C198.8,250.2,199.2,243.7,199.6,237.2z"/>
	<path class="st35" d="M297.4,242.3c0.5,0.1,0.9,0.3,1.4,0.4c-0.4,0.1-0.9,0.3-1.3,0.4C297.4,242.9,297.4,242.6,297.4,242.3z"/>
	<path class="st25" d="M328.8,256.4c0.6,0.6,1.1,1.2,1.7,1.8C329.9,257.6,329.3,257,328.8,256.4z"/>
	<path class="st28" d="M340.2,361.6c5.8,0.2,11.7,0.3,17.5,0.5c0.6,1.7,1.2,3.3,1.8,5c0,1.7-0.1,3.5-0.1,5.2c-0.7,0.5-1.4,1-2.2,1.5
		c-0.3-0.8-0.6-1.7-1.2-3.7c-2.4,2.1-4.3,3.8-7.3,6.5c0.7-2.3,1.1-3.7,1.5-5.3c-2.9-2-5,0-6.7,1.8c-0.5,0.5,0.7,2.6,1.1,4
		c-1.5-0.1-2.9-0.3-4.4-0.4c1.3-4.5,0.6-5.2-3.8-4.8c-1.8,0.2-3.8-0.7-5.3-1c-1.8,0.8-3.8,1.6-5.8,2.4c0-4.4,0-8.9,0-13.3
		C330.2,360.5,335.2,361.1,340.2,361.6z"/>
	<path class="st28" d="M306.8,358.4c5.6,0.5,11.1,1,16.7,1.5c0,3.8-0.1,7.6,0.1,11.3c0.1,1.2,1,2.4,1.6,3.6c0,0.3,0.1,0.6,0.1,0.8
		c-4.4-0.3-8.7-0.6-13.1-0.9c-4.7-2-4.7-5.9-4.5-10.1c0.1-1.8-0.5-3.6-0.8-5.4C306.8,359,306.8,358.7,306.8,358.4z"/>
	<path class="st21" d="M306.8,358.4c0,0.3,0,0.6,0.1,0.9c0,4.5,0,9,0,12.6c-3.4-0.2-6.5-0.3-9.7-0.4c0-4.5,0-9,0-14.1
		C300.5,357.7,303.7,358.1,306.8,358.4z"/>
	<path class="st10" d="M344.6,377.1c-0.4-1.4-1.6-3.5-1.1-4c1.7-1.7,3.8-3.8,6.7-1.8c-0.4,1.5-0.8,2.9-1.5,5.3
		c3-2.7,4.9-4.4,7.3-6.5c0.7,2,1,2.9,1.2,3.7c0.8-0.5,1.5-1,2.2-1.5c0.3,1.7,0.6,3.5,0.9,5.2c-4.6,0.1-9.3,0.2-13.9,0.3
		C345.8,377.6,345.2,377.3,344.6,377.1z"/>
	<path class="st15" d="M325.2,375.7c0-0.3-0.1-0.6-0.1-0.8c0.1-0.5,0.1-1.1,0.2-1.6c2-0.8,3.9-1.7,5.8-2.4c1.6,0.3,3.5,1.2,5.3,1
		c4.4-0.4,5,0.2,3.8,4.8C335.2,376.3,330.2,376,325.2,375.7z"/>
	<path class="st15" d="M297.2,371.4c3.1,0.1,6.3,0.3,9.7,0.4c0-3.6,0-8.1,0-12.6c0.3,1.8,0.9,3.6,0.8,5.4c-0.2,4.2-0.2,8.1,4.5,10.1
		c-4.4-0.2-8.9-0.4-13.3-0.8C298.2,373.9,297.7,372.3,297.2,371.4z"/>
	<path class="st17" d="M330.6,388c4.8,0.6,9.6,1.3,14.4,1.9c-12-0.5-24-1-36-1.5c0-0.4,0-0.7,0-1.1c2.5,0,4.9-0.1,7.4,0
		C321.1,387.5,325.8,387.7,330.6,388z"/>
	<path class="st13" d="M325.3,373.3c-0.1,0.5-0.1,1.1-0.2,1.6c-0.5-1.2-1.5-2.4-1.6-3.6c-0.2-3.8-0.1-7.6-0.1-11.3
		c0.6,0,1.2,0,1.8,0C325.3,364.4,325.3,368.8,325.3,373.3z"/>
	<path class="st30" d="M314.7,411.8c-0.3,2.9-0.6,5.9-0.9,8.8c-0.3,2.6-0.6,5.3-0.9,7.9c0-6.8,0-13.7,0-20.5c0.3,0,0.6-0.1,0.8-0.1
		C314.1,409.2,314.4,410.5,314.7,411.8z"/>
	<path class="st30" d="M314.9,395.8c-0.3,2.5-0.7,5.1-1,7.6c-0.3,0-0.6-0.1-0.9-0.1c0.1-2.6,0.3-5.2,0.4-7.8
		C313.8,395.6,314.3,395.7,314.9,395.8z"/>
	<path class="st10" d="M224.4,449.7c-0.4,1.1-0.7,2.1-1.1,3.2c-3.6-0.4-7.1-0.8-10.7-1.2C216.5,451,220.4,450.4,224.4,449.7z"/>
	<path class="st34" d="M360.3,377.5c-0.3-1.7-0.6-3.5-0.9-5.2c0-1.7,0.1-3.5,0.1-5.2c2.3-0.2,4.6-0.5,6.9-0.7c-0.2,4-0.5,8-0.7,12
		C363.9,378.1,362.1,377.8,360.3,377.5z"/>
	<path class="st13" d="M351.7,439.2c-0.1-1.8-0.2-3.6-0.3-5.8c-2.5,0-4.9,0-7.1,0c-0.3,3.2-0.4,6.2-0.9,9.1
		c-0.1,0.7-1.5,1.1-2.2,1.7c0-1.9-0.3-3.8,0-5.6c0.5-3.5-0.8-5.7-4.4-6.4c4.4-0.1,8.8-0.2,13.3-0.1c0.9,0,1.8,1.1,2.8,1.7
		C352.4,435.6,352,437.4,351.7,439.2z"/>
	<path class="st18" d="M366.4,366.3c-2.3,0.2-4.6,0.5-6.9,0.7c-0.6-1.7-1.2-3.3-1.8-5c2.3,0.2,4.6,0.6,6.9,0.5
		c2.6-0.1,3.9,0.8,3.4,3.5C367.5,366.2,366.9,366.3,366.4,366.3z"/>
	<path class="st12" d="M370.9,429.2c-2.5,0-5,0-7.5,0c0-1.3,0-2.5,0-4.1c2.3-0.1,4.4-0.2,6.6-0.3c0.3,0.3,0.7,0.5,1,0.8
		C370.9,426.9,370.9,428.1,370.9,429.2z"/>
	<path class="st17" d="M369.9,389.8c0,0.7,0,1.3,0,2c-7.1-0.4-14.2-0.8-21.3-1.2c0-0.2,0-0.5,0-0.7
		C355.7,389.8,362.8,389.8,369.9,389.8z"/>
	<path class="st10" d="M366.4,366.3c0.6-0.1,1.1-0.1,1.7-0.2c0.1,3,0.4,6.1,0.1,9.1c-0.1,1.1-1.6,2.1-2.5,3.1
		C365.9,374.4,366.1,370.3,366.4,366.3z"/>
	<polygon class="st16" points="354,450 354.4,449.9 354.3,450.2 	"/>
	<path class="st18" d="M355.9,446.9c0,0.4,0,0.9,0,1.3c-0.3-0.2-0.6-0.5-0.9-0.7C355.3,447.3,355.6,447.1,355.9,446.9z"/>
</g>
<image style="overflow:visible;" width="845" height="226" xlink:href="../../../../../../layer1.png"  transform="matrix(1.0933 0 0 1.1233 1 770)">
</image>
<image style="overflow:visible;" width="845" height="226" xlink:href="../../../../../../layer1.png"  transform="matrix(-1.0933 0 0 1.1233 1797.8057 770)">
</image>
<image style="overflow:visible;" width="845" height="226" xlink:href="../../../../../../layer1.png"  transform="matrix(-1.0933 0 0 1.1233 2587.8057 770)">
</image>
</svg>
