<svg width="1256" height="234" viewBox="0 0 1256 234" fill="none" xmlns="http://www.w3.org/2000/svg">
<path fill-rule="evenodd" clip-rule="evenodd" d="M31.3635 104.646C12.4693 107.047 -0.849647 123.209 1.62785 140.837C4.10649 158.463 21.4512 170.819 40.2844 168.477C59.1786 166.076 72.4355 149.914 69.9569 132.286C67.4794 114.66 50.1956 102.303 31.3635 104.646Z" fill="white"/>
<path fill-rule="evenodd" clip-rule="evenodd" d="M95.3559 125.611C68.2839 129.066 48.1504 144.818 50.381 160.864C52.6735 176.91 76.4617 187.216 103.533 183.761C130.605 180.365 150.738 164.612 148.508 148.566C146.215 132.521 122.427 122.214 95.3559 125.611Z" fill="white"/>
<path fill-rule="evenodd" clip-rule="evenodd" d="M163.19 117.998C140.022 120.926 122.8 134.277 124.72 147.922C126.641 161.567 146.959 170.234 170.066 167.364C193.235 164.436 210.457 151.025 208.537 137.381C206.616 123.795 186.297 115.069 163.19 117.998Z" fill="white"/>
<path fill-rule="evenodd" clip-rule="evenodd" d="M168.333 61.0176C142.686 61.0176 121.872 72.5538 121.872 86.7263C121.872 100.956 142.686 112.434 168.333 112.434C193.979 112.434 214.794 100.956 214.794 86.7263C214.794 72.5538 193.979 61.0176 168.333 61.0176Z" fill="white"/>
<path fill-rule="evenodd" clip-rule="evenodd" d="M185.677 74.897C162.508 77.8253 145.906 95.5103 148.57 114.425C151.233 133.399 172.172 146.34 195.279 143.472C218.447 140.544 235.05 122.859 232.386 103.943C229.723 85.0283 208.784 72.0274 185.677 74.897Z" fill="white"/>
<path fill-rule="evenodd" clip-rule="evenodd" d="M85.1964 62.5408C62.0284 65.468 45.3017 82.0999 47.7803 99.7262C50.2578 117.295 71.0104 129.241 94.1795 126.313C117.287 123.444 134.074 106.812 131.597 89.1855C129.118 71.5592 108.304 59.6125 85.1964 62.5408Z" fill="white"/>
<path fill-rule="evenodd" clip-rule="evenodd" d="M46.0439 83.0957C24.3622 83.0957 6.8313 94.5145 6.8313 108.686C6.8313 122.858 24.3622 134.278 46.0439 134.278C67.6648 134.278 85.2576 122.858 85.2576 108.686C85.2576 94.5145 67.6648 83.0957 46.0439 83.0957Z" fill="white"/>
<path fill-rule="evenodd" clip-rule="evenodd" d="M109.605 84.3247C54.2231 94.925 13.027 120.985 17.611 142.594C22.257 164.144 70.8867 173.103 126.331 162.504C181.775 151.962 222.971 125.845 218.325 104.294C213.74 82.6853 165.048 73.784 109.605 84.3247Z" fill="white"/>
<path fill-rule="evenodd" clip-rule="evenodd" d="M406.363 45.4965C387.469 47.8972 374.15 64.0599 376.628 81.6873C379.106 99.3136 396.451 111.67 415.284 109.328C434.179 106.927 447.436 90.7642 444.957 73.1368C442.479 55.5105 425.196 43.1535 406.363 45.4965Z" fill="white"/>
<path fill-rule="evenodd" clip-rule="evenodd" d="M470.356 66.4615C443.284 69.9164 423.15 85.6687 425.381 101.714C427.674 117.761 451.462 128.067 478.533 124.612C505.605 121.216 525.738 105.462 523.508 89.4167C521.215 73.3713 497.427 63.0642 470.356 66.4615Z" fill="white"/>
<path fill-rule="evenodd" clip-rule="evenodd" d="M538.19 58.8482C515.022 61.7765 497.8 75.128 499.72 88.7728C501.641 102.418 521.959 111.084 545.066 108.215C568.235 105.286 585.457 91.8761 583.537 78.2312C581.616 64.6461 561.297 55.9199 538.19 58.8482Z" fill="white"/>
<path fill-rule="evenodd" clip-rule="evenodd" d="M543.333 1.86816C517.686 1.86816 496.872 13.4044 496.872 27.5769C496.872 41.807 517.686 53.2847 543.333 53.2847C568.979 53.2847 589.794 41.807 589.794 27.5769C589.794 13.4044 568.979 1.86816 543.333 1.86816Z" fill="white"/>
<path fill-rule="evenodd" clip-rule="evenodd" d="M560.677 15.7476C537.508 18.6759 520.906 36.3609 523.57 55.2761C526.233 74.2498 547.172 87.191 570.279 84.3224C593.447 81.3941 610.05 63.7091 607.386 44.794C604.723 25.8788 583.784 12.878 560.677 15.7476Z" fill="white"/>
<path fill-rule="evenodd" clip-rule="evenodd" d="M460.196 3.39138C437.028 6.31862 420.302 22.9504 422.78 40.5768C425.258 58.1456 446.01 70.0911 469.18 67.1638C492.287 64.2942 509.074 47.6625 506.597 30.0361C504.118 12.4098 483.304 0.463059 460.196 3.39138Z" fill="white"/>
<path fill-rule="evenodd" clip-rule="evenodd" d="M421.044 23.9463C399.362 23.9463 381.831 35.3651 381.831 49.5366C381.831 63.709 399.362 75.1282 421.044 75.1282C442.665 75.1282 460.258 63.709 460.258 49.5366C460.258 35.3651 442.665 23.9463 421.044 23.9463Z" fill="white"/>
<path fill-rule="evenodd" clip-rule="evenodd" d="M484.605 25.1753C429.223 35.7756 388.027 61.8352 392.611 83.4442C397.257 104.994 445.887 113.954 501.331 103.355C556.775 92.8131 597.971 66.6951 593.325 45.1448C588.74 23.5358 540.048 14.6346 484.605 25.1753Z" fill="white"/>
<path fill-rule="evenodd" clip-rule="evenodd" d="M640.363 139.945C621.469 142.345 608.15 158.508 610.628 176.136C613.106 193.762 630.451 206.118 649.284 203.776C668.179 201.375 681.436 185.213 678.957 167.585C676.479 149.959 659.196 137.602 640.363 139.945Z" fill="white"/>
<path fill-rule="evenodd" clip-rule="evenodd" d="M704.356 160.91C677.284 164.365 657.15 180.117 659.381 196.163C661.674 212.209 685.462 222.515 712.533 219.06C739.605 215.664 759.738 199.91 757.508 183.865C755.215 167.82 731.427 157.512 704.356 160.91Z" fill="white"/>
<path fill-rule="evenodd" clip-rule="evenodd" d="M772.19 153.296C749.022 156.225 731.8 169.576 733.72 183.221C735.641 196.866 755.959 205.533 779.066 202.663C802.235 199.735 819.457 186.324 817.537 172.679C815.616 159.094 795.297 150.368 772.19 153.296Z" fill="white"/>
<path fill-rule="evenodd" clip-rule="evenodd" d="M777.333 96.3165C751.686 96.3165 730.872 107.853 730.872 122.025C730.872 136.255 751.686 147.733 777.333 147.733C802.979 147.733 823.794 136.255 823.794 122.025C823.794 107.853 802.979 96.3165 777.333 96.3165Z" fill="white"/>
<path fill-rule="evenodd" clip-rule="evenodd" d="M794.677 110.196C771.508 113.124 754.906 130.809 757.57 149.724C760.233 168.698 781.172 181.639 804.279 178.771C827.447 175.842 844.05 158.157 841.386 139.242C838.723 120.327 817.784 107.326 794.677 110.196Z" fill="white"/>
<path fill-rule="evenodd" clip-rule="evenodd" d="M694.196 97.8397C671.028 100.767 654.302 117.399 656.78 135.025C659.258 152.594 680.01 164.539 703.18 161.612C726.287 158.742 743.074 142.111 740.597 124.484C738.118 106.858 717.304 94.9114 694.196 97.8397Z" fill="white"/>
<path fill-rule="evenodd" clip-rule="evenodd" d="M655.044 118.395C633.362 118.395 615.831 129.813 615.831 143.985C615.831 158.157 633.362 169.577 655.044 169.577C676.665 169.577 694.258 158.157 694.258 143.985C694.258 129.813 676.665 118.395 655.044 118.395Z" fill="white"/>
<path fill-rule="evenodd" clip-rule="evenodd" d="M718.605 119.624C663.223 130.224 622.027 156.284 626.611 177.892C631.257 199.443 679.887 208.402 735.331 197.803C790.775 187.261 831.971 161.143 827.325 139.593C822.74 117.984 774.048 109.083 718.605 119.624Z" fill="white"/>
<path d="M1096.52 31.0019C1069.13 31.1796 1042.1 43.0797 1032.71 64.6738C986.834 6.46115 885.924 61.0926 915.207 119.351C845.767 107.034 861.715 214.26 926.505 203.807C954.319 231.472 996.981 235.997 1043.15 216.431H1043.18C1099 235.848 1147.54 221.374 1169.43 206.555C1300.8 239.302 1253.55 38.7812 1167.34 91.0948C1166.67 49.4327 1131.3 30.7781 1096.52 31.0039V31.0019Z" fill="white"/>
<path d="M921.514 129.329C871.416 64.0306 997.823 -4.52952 1040.66 76.9912M1032.71 64.6715C1054.96 13.4868 1176.32 16.7774 1166.82 101.511L1032.71 64.6715ZM1167.34 91.0905C1253.55 38.7722 1300.8 239.293 1169.43 206.541L1167.34 91.0905ZM1177.74 199.612C1161.77 216.958 1100.73 241.848 1030.82 211.614L1177.74 199.612ZM1043.14 216.419C996.975 235.985 954.324 231.47 926.504 203.804L1043.14 216.419ZM938.518 200.66C863.904 227.379 841.645 106.299 915.198 119.346L938.518 200.66Z" stroke="white" stroke-width="10" stroke-linecap="round" stroke-linejoin="round"/>
</svg>
