<svg id="Layer_1" data-name="Layer 1" xmlns="http://www.w3.org/2000/svg" xmlns:xlink="http://www.w3.org/1999/xlink" viewBox="0 0 1280 1024"><defs><style>.cls-1,.cls-2,.cls-6{fill:none;}.cls-1{stroke:#1d1d1b;stroke-width:6px;opacity:0.7;}.cls-1,.cls-2,.cls-3,.cls-5,.cls-6{stroke-miterlimit:10;}.cls-2,.cls-3{stroke:#000;}.cls-2,.cls-3,.cls-5{stroke-width:3px;}.cls-3{fill:#fcfcfc;}.cls-4{font-size:37.42px;fill:#62b7b1;font-family:Poppins-SemiBold, Poppins;font-weight:600;}.cls-5{fill:#f9f8f7;}.cls-5,.cls-6{stroke:#050505;}.cls-7{fill:#c4f4c1;}.cls-8{fill:#777975;}.cls-9{fill:#f0efe0;}.cls-10{fill:#4f5435;}.cls-11{fill:#3e4429;}.cls-12{fill:#90918b;}.cls-13{fill:#6c644e;}.cls-14{fill:#a69d91;}.cls-15{fill:#aaaaa5;}.cls-16{fill:#5a6340;}.cls-17{fill:#878984;}.cls-18{fill:#dcdde2;}.cls-19{fill:#4c5132;}.cls-20{fill:#e0e0e6;}.cls-21{fill:#c3ccd9;}.cls-22{fill:#e6e6ec;}.cls-23{fill:#cbd2de;}.cls-24{fill:#bbc5d7;}.cls-25{fill:#dfdacc;}.cls-26{fill:#545a3a;}.cls-27{fill:#3b4025;}.cls-28{fill:#cbc9bc;}.cls-29{fill:#d6d9e2;}.cls-30{fill:#b4c0d2;}.cls-31{fill:#a9b9ce;}.cls-32{fill:#91a6b8;}.cls-33{fill:#b3bfd1;}</style><image id="image" width="500" height="300" xlink:href="../../Desktop/byy%20copy.png"/></defs><path class="cls-1" d="M686.81,622.46s-7.8-11.08-26.35-6.22"/><path class="cls-1" d="M618.82,613.11s-10.32-11.9-30.58-7.35"/><path class="cls-1" d="M755.73,638.67s-10.29-11.93-30.57-7.43"/><path class="cls-1" d="M779.16,668.72s-.85-15.73-19.66-24.56"/><path class="cls-1" d="M837.71,711.51s-5.32-14.83-25.86-17.91"/><path class="cls-1" d="M899.39,748.65s-5.31-14.83-25.85-17.91"/><path class="cls-1" d="M493.51,551s-8.75,4.53-16.93-10.17"/><path class="cls-1" d="M717,631s-9.71,7.46-24.2-3.71"/><path class="cls-1" d="M531.14,575.81s-1.55,14.67,15.62,25"/><path class="cls-1" d="M553.57,604.59s11.34,9.43,29.45.86"/><path class="cls-1" d="M624.57,616.59s11.34,9.43,29.45.86"/><path class="cls-1" d="M781.38,673.53s2.32,14.56,21.59,20"/><path class="cls-1" d="M904.77,751.4s6.38,13.3,26.41,13"/><path class="cls-1" d="M840.71,716.35s6.38,13.29,26.41,13"/><path class="cls-1" d="M1005.71,784.69s-14.29,6.63-30.91-5.82"/><path class="cls-1" d="M1011.45,786.58s14-4.79,27.83,9.65"/><path class="cls-1" d="M941.5,765.61s13.94-4.79,27.83,9.64"/><path class="cls-1" d="M1114,813.38s-10-12.14-30.4-8"/><path class="cls-1" d="M1119.65,820.52s12.8,7.33,11.09,27.29"/><path class="cls-1" d="M1047.84,803s10.52,10.33,29.27,3.28"/><path class="cls-1" d="M453.26,529.7s9.12-5.32,19.35,8.55"/><path class="cls-1" d="M500.77,549.91S517.91,543.23,531,571"/><path class="cls-1" d="M1131.39,852.61s3.51,18-26.15,26"/><path class="cls-1" d="M431.63,525.29s.77,8.27,16.2,4.1"/><path class="cls-1" d="M408.36,506.08s12.95-1.33,20.66,15.83"/><circle class="cls-2" cx="743.77" cy="616.66" r="15.96"/><circle class="cls-2" cx="640.26" cy="604.35" r="15.96"/><rect class="cls-3" x="622.46" y="513.98" width="151.88" height="78.14" rx="9.54" transform="translate(66.84 -75.25) rotate(6.48)"/><text class="cls-4" transform="matrix(0.99, 0.11, -0.11, 0.99, 644.96, 560.92)">NUUII</text><path class="cls-5" d="M774.2,546.49h30.1a10.62,10.62,0,0,1,10.62,10.62v30.23a8.68,8.68,0,0,1-8.68,8.68h-32a0,0,0,0,1,0,0V546.49A0,0,0,0,1,774.2,546.49Z" transform="translate(69.51 -85.98) rotate(6.48)"/><rect class="cls-6" x="780.8" y="557.95" width="27.88" height="16.51" rx="4.27" transform="translate(68.94 -86.03) rotate(6.48)"/><path class="cls-7" d="M483,459.15c68.34,56.06-144.73,57.34-238.87,46.29-92.79-10.9-186.7-5.76-201.64-73.76s133-25.54,227.94-22.07C367.12,413.14,429.21,415,483,459.15Z"/><path class="cls-8" d="M193.49,194.94l1.39-4.08,2,2.31c-.27,9.87-.62,19.73-.76,29.6-.05,3.61.41,7.22.64,10.84l.53.82a24.9,24.9,0,0,0-1.07,4.95c-.11,9.19-.06,18.38-.06,27.57l0,.92.22,3.35c0,3,0,6,0,9l-.33,8.65-.66,4.46c.57,3.06-2.17,6.57,1.27,9.23l-.45,3.63c-.6,1-1.7,2-1.72,3-.08,5.6.1,11.19.18,16.79-.09,10.72-.13,21.44-.3,32.16-.13,8.71-.43,17.41-.65,26.12V417h1.41c.44-10.38-.72-21,3.77-30.8,4.85,1,10.61-1.07,14.77,5.27.88-2.36,2.06-4.13,1.93-5.8-.05-.76-2.65-1.71-4.18-1.91-3.87-.49-7.78-.6-11.68-.86l-.67-2.43.23-.1.1.23,3-.55,1.78-.62,28.81-4.5V358.23c.56.29.42.15.32.18q-10.24,2.2-20.47,4.45l-14.46,2.65-.55-3.82.3-3.36,41.12-9.82,13.89-3.31,1,.81h0c0,.3,0,.59.08.89-.44,15.11-.89,30.22-1.34,45.68l50.35-5.85v62.07l-5.15-.08c-1.54-4.38-5.56-3.87-9-4.57l-.66-8.58c0-2.59-.06-5.19.12-7.77.2-2.86-1-3.83-3.79-3.7-3.73.19-7.48.1-11.22.13a22.6,22.6,0,0,0-.81,4.09c-.13,5.66-.12,11.32-.16,17l-2.53,1-.32-1.25c-.21-5.05-.5-10.1-.6-15.16-.11-5.94-.05-6.14-6.08-5.52-2.89.3-5.69,1.52-8.52,2.32-.1,2.6.16,5.28-.41,7.78-.52,2.29-1.95,4.38-3,6.56-.16-4.07-.28-8.15-.52-12.21-.07-1.1-.46-3.07-.83-3.1a46,46,0,0,0-10.81-.12c-.77.12-1.2,3.63-1.46,5.61a56.71,56.71,0,0,0-.19,6.12c-.37.53-1.07,1.07-1.06,1.6.07,6.18.25,12.36.4,18.53-6.27,0-12.54.14-18.81,0a38.21,38.21,0,0,1-5.85-1l11.42-1,4.36-.11h5.87l0-1-4.07-1.22-1.79-3.57-4.42-1.76a57.28,57.28,0,0,0-4.46-5.2c-.92-.87-2.51-1.76-3.56-1.54s-1.67,1.86-2.41,2.92a23.74,23.74,0,0,0-1.21,2.15c-.43-1.25-.85-2.51-1.28-3.76l5-5.07c.68-3.27-.63-4.54-4-4.34a96.64,96.64,0,0,1-10.07,0c-3.17-.14-4.72,1.06-4.35,4.34.38,3,2.14,1.33,3.49,1l4.34.08,2,1.58-3,.86H192.32l2.88,2.6q-1.39,1.85-2.78,3.7c-3.15,3.29-5,1.21-6.66-1.63l-.92-2c-.1-.42-.21-.84-.15-.62l-6.95,3.68c0-3.71.17-6.48-.08-9.21-.1-1.19-1-2.31-1.62-3.45-.91,1-2.51,2-2.59,3.15a87.56,87.56,0,0,0-.08,12.65c.08,1.27,1.53,2.46,2.35,3.69L175,455.8c-7.84.29-15.68.44-23.5,1-1.54.1-4.53-1-4.51,2.49h-1.75c-.18-4.07-4.48-2.37-6.13-4.38,2.8-.95,5.57-2.53,8.42-2.69,4.32-.24,8.7.71,13.05.73a4.22,4.22,0,0,0,3-2.59,72.31,72.31,0,0,0,1.27-9l.81,0v11.31c4-1.75,4.57-5.23,4.08-20.7l-.22-3.48H140.79c0-2.64,0-5.27,0-7.91q.6-11.56,1.19-23.14l-1,0-.24,1.27a9.72,9.72,0,0,0-.75,2.43c-.35,9.12-.63,18.24-.94,27.36l-2.63,0,.91-56.2c15.64-3.52,31.29-7,46.88-10.66,1-.22,2.16-2,2.22-3.16.23-4.16,0-8.34,0-12.51a38.47,38.47,0,0,0,1.78-27.18c1.94-.06,4.39.45,4.32-2.63s-.51-6.46-.78-9.69a20.17,20.17,0,0,0,.76-3.69c.11-7.48-.29-15,.34-22.44.35-4.06.93-7.79-2.12-12-.28,4.64-.66,8.62-.74,12.6-.1,5.26,0,10.53,0,15.8-.72-1-2-2-2.08-3-.39-5.11-.47-10.25-.66-15.38V275.7c-.07-1.17-.14-2.35-.2-3.52l1.14-3.61,0-.81,0,0c1.36-1.68,3.8-3.31,3.87-5,.25-7-.22-14.08-.43-21.12.43-6,.9-12.08,1.23-18.13,0-.52-.83-1.09-1.28-1.64.79-2.55-.89-2.43-2.54-2.35l-.72-2.57c3.45-.68,2.6-3.09,2.22-5.38-.7-4.09-1.31-8.19-2.1-13.19l3.21,1.79C192.38,198.22,192.94,196.58,193.49,194.94ZM182.11,383.6l.4,0,.4-.07,6.4.17c-2.27,3.93,1.55,8.91-2.18,12.59l1.08.62,1.56,34.44,1.86,0v-34.5q-.06-6.56-.11-13.12V358.87h-1.6v8.63l-9.52,2.31c-3.76,3.13-1.15,7.32-1.78,11C178.16,383.4,179.85,384,182.11,383.6Zm53.56-9.68a80.58,80.58,0,0,0,8.85-.91,3.71,3.71,0,0,0,2.41-2.51c.24-4.77.11-9.56.11-14.68-2.72.36-5.07.18-6.92,1.06s-4,2.6-4.25,4.24C235.26,365.09,235.67,369.22,235.67,373.92Zm-51.34,65.85,1.38.69c2.13-1.42,6.54-1.07,4.67-5.55-.31-.76-3.42-1.34-3.61-1A35.59,35.59,0,0,0,184.33,439.77Z"/><path class="cls-9" d="M413.17,393.3a4.08,4.08,0,0,1,.7.11c4.77.52,9.54,1.08,14.32,1.48.49,0,1.05-.87,1.58-1.33l6.12.72v62.36l-31.62,0c0-4.37.08-8.77-.27-13.12a4.47,4.47,0,0,0-2.55-3.29c-1.18-.29-3.93,1-3.9,1.48.36,4.65,1.15,9.26,1.82,13.89L391,456.82l-2.65-.19q1.25-2.16,2.5-4.32c.21-2.93.42-5.85.64-8.95l-3.2-.17c0-4.78.11-9.3-.07-13.81-.05-1.18-1-2.33-1.55-3.49L371.78,425q-.28-16.63-.58-33.27c2,0,4.06,0,6.08.06Q395.24,392.53,413.17,393.3Z"/><path class="cls-10" d="M288.36,435.56l.66,8.58c-7.34.35-7.65.63-5.92,5.57,1.09.46,2.16,1.26,3.25,1.29a55.8,55.8,0,0,0,6.43-.56l4.15.6c2.83,1.46,5.63,2.68,8.05-.66V435.8l2,0v18.84l-.21,4.6H298c2.22-2.11,2.54-4.4-.88-4.92-3.85-.58-7.86-.13-12.15-.13.69,2.16,1.15,3.6,1.62,5H272.53L270,456.62c.5-1.24,1.09-2.69,1.67-4.15,1.22-2.32,2.43-4.65,3.68-7l-2.87-.14c0-5.67,0-11.33.16-17a23.46,23.46,0,0,1,.8-4.09l1.4,2.61a82,82,0,0,1,9.22-.85c5.64.11,2.48,4.67,3.4,7.19C287.77,434,288.06,434.76,288.36,435.56Z"/><path class="cls-11" d="M341,459.27H317.33c.83-2.68,1.67-5.35,2.51-8,0-1.42.07-2.85.1-4.27a20.56,20.56,0,0,0-.41-14.11l3.11-1.12,1.76.16a2.22,2.22,0,0,0,.08.85,54.23,54.23,0,0,0-.07,5.7c.16,1.92-1.13,4.79,2.52,4.95s2.4-2.87,3-4.71c.08-.24.35-.42.51-.6l4.83,1.56-8.69,5.64h9.95c.69.8,1.37,1.61,2.06,2.42l-.33,7.14L341,456C341,457.08,341,458.18,341,459.27Z"/><path class="cls-12" d="M211.94,456.48a38.21,38.21,0,0,0,5.85,1c6.27.1,12.54,0,18.81,0,.27.62.54,1.23.8,1.85H184.71l-.33-2.69c0-2,0-4,0-6l.48-7.06.92,2v10.26c6.49,0,12.55.05,18.6,0,3.92-.05,4.51-1.21,2.86-5.22L208.57,440l1.8,2.33c.43,1.26.85,2.52,1.28,3.77l.48,1.62L210.22,449C209.94,451.66,206.81,455,211.94,456.48Z"/><path class="cls-13" d="M271.69,452.47c-.58,1.46-1.17,2.91-1.67,4.15l2.51,2.65h-7l-12.36-2.1,1.82-2.29c8.13-.05,11.36-3.33,11.4-11.49,0-2.1.23-4.2.36-6.3l.6.17q1.17,3.87,2.32,7.75c.11.41.21.83.32,1.25C268.45,448.91,268.32,451.18,271.69,452.47Z"/><path class="cls-14" d="M146.94,459.27c0-3.49,3-2.39,4.51-2.49,7.82-.54,15.66-.69,23.5-1l9,.8-.15,2.67Z"/><path class="cls-15" d="M404.27,456.6l31.62,0c.44,2.19-.44,2.71-2.63,2.69-14.35-.12-28.69-.06-43-.06.28-.82.55-1.63.82-2.45l8.33-1.26Z"/><path class="cls-13" d="M237.4,459.27c-.26-.62-.53-1.23-.8-1.85-.15-6.17-.33-12.35-.4-18.53,0-.53.69-1.07,1.06-1.6a52,52,0,0,1,.9,6.73c.1,11,1.07,11.8,12,9.26l.43-.07c.32,1.28.63,2.56,1,3.84l-6.24,2.22Z"/><path class="cls-11" d="M286.59,459.27c-.47-1.45-.93-2.89-1.62-5,4.29,0,8.3-.45,12.15.13,3.42.52,3.1,2.81.88,4.92Z"/><path class="cls-8" d="M132,459.27h-1.75c-.34-2.57-1.78-3.68-4.38-3.54s-3.7-1.14-3.33-3.71c1.27.06,2.56.05,3.83.19,3.37.37,4.36-1.23,3.67-4.3l2.16-6.28.06,7.81-.18,2.75Z"/><path class="cls-12" d="M122.55,452c-.37,2.57.8,3.84,3.33,3.71s4,1,4.38,3.54h-8.79l-.12-12.42-2.51-4.31,2.56-.13,1.65.35.06-.08C122.92,445.8,122.74,448.91,122.55,452Z"/><path class="cls-8" d="M319.84,451.24c-.84,2.68-1.68,5.35-2.51,8H306.79l.21-4.6c2.58,3,5.4,4.5,8.49,2.07-.44-2.54-.78-4.52-1.12-6.5Z"/><path class="cls-16" d="M358.6,459.27h-1.75c-.11-.94-.21-1.87-.31-2.81,0-2.53,0-5.07,0-7.6-.26-.67-.52-1.34-.77-2a38.6,38.6,0,0,0,.63-5c0-3,.77-6.32-2.92-8l4-.75.57,8.47,1.06,9.94.18,6Z"/><path class="cls-14" d="M391,456.82c-.27.82-.54,1.63-.82,2.45H371.78l1.76-1.84,14.85-.8Z"/><path class="cls-13" d="M132,459.27c0-2.36.05-4.72.08-7.08l1.63-2.65.16-3.38a20.51,20.51,0,0,1,1.6,3.6c.46,1.94.62,4,.91,5.95l0,3.56Z"/><path class="cls-17" d="M373.54,457.43l-1.76,1.84h-7.91c.1-1.16.19-2.32.28-3.48l2.42,0,1.28,1.81c1-1.1,2.63-2.11,2.79-3.31a107.34,107.34,0,0,0,.39-10.78l.78,0Z"/><path class="cls-18" d="M364.15,455.79l-.28,3.48h-2.63l-1.9-1.73-.18-6,1.34-2.71C361.94,451.58,363.05,453.68,364.15,455.79Z"/><path class="cls-14" d="M136.41,459.27c0-1.19,0-2.38,0-3.56l2.67-.82c1.65,2,5.95.31,6.13,4.38Z"/><path class="cls-14" d="M245.31,459.27l6.24-2.21,1.6.11,12.36,2.1Z"/><path class="cls-14" d="M356.54,456.46l.31,2.81h-7l-.62-.7-.26.7h-1.75l.12-2.73Z"/><path class="cls-13" d="M347.31,456.54l-.12,2.73H341c0-1.09-.05-2.19-.07-3.28C343,457.19,345.51,452.83,347.31,456.54Z"/><path class="cls-12" d="M359.34,457.54l1.9,1.73H358.6Z"/><path class="cls-19" d="M183.83,459.27l.15-2.67.4,0,.33,2.69Z"/><path class="cls-13" d="M348.94,459.27l.26-.7.62.7Z"/><path class="cls-20" d="M196.13,267c0-9.19,0-18.38.06-27.57a24.9,24.9,0,0,1,1.07-4.95h3.29v0c-.33.94-.65,1.87-1,2.81l-1.17,19.51.78.08,1.13-3c4.18-2,8.16-3.23,11.76,1.28.76.94,2.65,1.17,4.06,1.36,4.11.54,8.25,1,12.39,1.3,3.67.25,7.52.86,11,.05,1.62-.38,2.88-3.62,3.66-5.79a4.08,4.08,0,0,0-1.52-3.62c-3.31-1.91-6.9-3.31-10.33-5a17.54,17.54,0,0,1-2.67-2l5.26.2,7.65,1.76c3,5.64,3.75,5.72,10,4.85a70.23,70.23,0,0,1,14.2-.44c1.56.11,3.65,2,4.34,3.55,1.24,2.78,3,4.2,5.89,4.34l5.34,3.28c-1.1,2.57-2.09,4.48-2.75,6.5-.84,2.54-2.12,3.31-4.91,2.76-4.79-.94-9.68-1.31-15.25-2,1.4,5.87-2.32,6.89-6.17,7.79-3.31-.26-7.18.48-9.81-1-5.33-3-10.65-4-16.38-2.66-3.94.91-7.69,2.62-11.61,3.63a9.78,9.78,0,0,1-5.34-.15c-3.27-1.14-6.37-2.78-9.54-4.22l-2.65-1.7Z"/><path class="cls-9" d="M199.59,237.21c.32-.94.64-1.87,1-2.81,5.33-1.35,9,2.35,12.86,4.71,3.67,2.24,7,3,11,1.48,1.17-.43,2.82.46,4.26.74a17.54,17.54,0,0,0,2.67,2c3.43,1.7,7,3.1,10.33,5A4.08,4.08,0,0,1,243.2,252c-.78,2.17-2,5.41-3.66,5.79-3.48.81-7.33.2-11-.05-4.14-.29-8.28-.76-12.39-1.3-1.41-.19-3.3-.42-4.06-1.36-3.6-4.51-7.58-3.33-11.76-1.28Q200,245.48,199.59,237.21Z"/><path class="cls-18" d="M191.7,241.65c.21,7,.68,14.09.43,21.12-.07,1.72-2.51,3.35-3.87,5-4.49,0-9,.16-13.46-.16a5.06,5.06,0,0,1-3.45-2.55c-.39-.77.49-2.61,1.33-3.45,2.71-2.73,2.7-4.84-.56-7.4a28.59,28.59,0,0,0-3.64-2.07l.42-3.67c.87-5.06,6.35-9.15,13.06-9.67,1.87-.14,3.76-.12,5.64-.18l.79,1.19Z"/><path class="cls-21" d="M168.9,248.5l-.42,3.67a28.59,28.59,0,0,1,3.64,2.07c3.26,2.56,3.27,4.67.56,7.4-.84.84-1.72,2.68-1.33,3.45a5.06,5.06,0,0,0,3.45,2.55c4.47.32,9,.14,13.46.16l0,0a1.85,1.85,0,0,1,0,.81l-1.14,3.61c-5.84-.85-11.69-1.65-17.51-2.57-2.23-.35-3.12-1.54-2.57-4,.71-3.24,0-6.06-3.53-7.58-2.79-1.22-1.88-3.41-.75-5.11C164.14,250.7,164.65,246.84,168.9,248.5Z"/><path class="cls-15" d="M196.73,233.61c-.23-3.62-.69-7.23-.64-10.84.14-9.87.49-19.73.76-29.6.63.88,1.26,1.75,1.9,2.62a24.9,24.9,0,0,0-.85,4.53c-.08,9.47,0,18.94-.09,28.41A24.43,24.43,0,0,1,196.73,233.61Z"/><path class="cls-12" d="M188.39,239.84l-.79-1.19c-.06-4.85-.27-9.7-.12-14.53.05-1.55,1.06-3.07,1.63-4.59,1.65-.08,3.33-.2,2.54,2.35-.49,5.13-.91,10.26-1.55,15.37C190,238.17,189,239,188.39,239.84Z"/><path class="cls-12" d="M193.49,194.94c-.55,1.64-1.11,3.28-1.77,5.24l-3.21-1.79c.79,5,1.4,9.1,2.1,13.19.38,2.29,1.23,4.7-2.22,5.38-.32-5.32-.79-10.63-.93-16C187.3,195.2,187.44,195.2,193.49,194.94Z"/><path class="cls-22" d="M196.73,233.61a24.43,24.43,0,0,0,1.08-4.88c.1-9.47,0-18.94.09-28.41a24.9,24.9,0,0,1,.85-4.53q0,13.69,0,27.39a60.45,60.45,0,0,0,.08,7c.18,1.46,1.1,2.83,1.68,4.24h-3.29Z"/><path class="cls-23" d="M285.67,244.07l-3.45,1.82Z"/><path class="cls-24" d="M222.79,228.17l-.14-.36.5-.11a.89.89,0,0,1,0,.4C223.08,228.16,222.91,228.15,222.79,228.17Z"/><path class="cls-25" d="M319.84,451.24l-5.47-1c.34,2,.68,4,1.12,6.5-3.09,2.43-5.91.93-8.49-2.07V435.83l-2,0v14.58l-1.84-1.59V386.72l-50.35,5.85c.45-15.46.9-30.57,1.34-45.68,2.72.24,5.44.63,8.16.69,3.63.08,7.25-.09,10.88-.15,8.9,1.63,17.9,1.12,26.87,1.43,3,.1,6.09,0,8.82.93,8.77,3,18,1.27,26.86,3.25l9.75,1.85c.19,1.17.39,2.34.58,3.52l-.66.24-1.59-2.26-3.62,5.23-14.9-1.7h-1.85l-16.65-1.51-9.62-1.05v14.06c.56.88,1,2.45,1.68,2.52,4.4.45,8.83.58,13.25.82l13.1.91,15,1,4.41.43,1.74.72c-.49,1-.72,2.33-1.51,2.86-2.16,1.46-11.15.19-13.28-1.69-.34,3.05-.67,6-1,9-4.72-.25-9.44-.54-14.16-.72-2.45-.1-4.91,0-7.36,0v1.12l36,1.53v26c-1.11-1.23-1.64-2.25-2.46-2.65-2.93-1.42-3.91-2.82-.9-5.34.85-.71.86-2.44,1.36-4.07l-12.36,2.41.28,1.54c1.24.23,2.67.16,3.65.79a4,4,0,0,1,1.84,2.93c-.09,1-1.63,2.65-2.27,2.54-5.66-1-6.68,5.62-11.1,6.55-1.6.34-3.16,1.69-4.63,1.53-1.08-.12-2.5-1.8-2.84-3a44.12,44.12,0,0,1-.88-7.31c-.31-1.32-.61-2.64-.92-4l-.84.11V428.5l-1.74,3.67c-.39,4.51-.79,9-1.2,13.62l9.95,1.18C319.91,448.39,319.88,449.82,319.84,451.24Zm-5-55.47-1.54-.26-.39,7.76.95.09Q314.38,399.56,314.86,395.77Z"/><path class="cls-26" d="M139.06,454.89l-2.67.82c-.29-2-.45-4-.91-5.95a20.51,20.51,0,0,0-1.6-3.6c.87-5.15.5-11,6.92-13.21l1.46,8.19c1.74-2,2.3-4.27,3.37-6.28.59-1.1,2-1.75,3.07-2.6a23.09,23.09,0,0,1,1.7,3.46,46,46,0,0,1,1,4.83l1.52.32c1.2-4.26,1.39-9.61,8.31-8V441l1.11.26c.62-1.32,1.89-2.71,1.75-3.94-.54-4.56,2.5-4.87,5.61-5.3.49,15.47-.11,18.95-4.08,20.7V441.4l-.81,0a72.31,72.31,0,0,1-1.27,9,4.22,4.22,0,0,1-3,2.59c-4.35,0-8.73-1-13.05-.73C144.63,452.36,141.86,453.94,139.06,454.89Z"/><path class="cls-19" d="M212.76,362.86q10.23-2.24,20.47-4.45c.1,0,.24.11-.32-.18V375l-28.81,4.5c.1-4.6-.52-9.27.38-13.79l1.76,0,.69,8.82h.78l1.48-10.76c4.68,4.11,1.49,8.83,3.57,13.4Z"/><path class="cls-27" d="M250.6,453.21l-.43.07c-10.94,2.54-11.91,1.75-12-9.26a52,52,0,0,0-.9-6.73,56.71,56.71,0,0,1,.19-6.12c.26-2,.69-5.49,1.46-5.61a46,46,0,0,1,10.81.12c.37,0,.76,2,.83,3.1.24,4.06.36,8.14.52,12.21Q250.84,447.1,250.6,453.21Z"/><path class="cls-27" d="M269.65,445q-1.15-3.88-2.32-7.75l-.6-.17c-.13,2.1-.34,4.2-.36,6.3,0,8.16-3.27,11.44-11.4,11.49,1.13-1.43,2-3.23,3.46-4.21,3-2,4.15-11.11,1.07-12.14s-2.46-2.93-2.85-5a52.08,52.08,0,0,0-2.2-6.86c2.83-.8,5.63-2,8.52-2.32,6-.62,6-.42,6.08,5.52C269.15,434.91,269.44,440,269.65,445Z"/><path class="cls-27" d="M169.7,432c-3.11.43-6.15.74-5.61,5.3.14,1.23-1.13,2.62-1.75,3.94l-1.11-.26v-8.14c-6.92-1.59-7.11,3.76-8.31,8l-1.52-.32a46,46,0,0,0-1-4.83,23.09,23.09,0,0,0-1.7-3.46c-1,.85-2.48,1.5-3.07,2.6-1.07,2-1.63,4.28-3.37,6.28q-.73-4.09-1.46-8.19c0-1.24-.06-2.48-.1-3.72l.09-.7h28.69Z"/><path class="cls-11" d="M140.7,429.23c0,1.24.07,2.48.1,3.72-6.42,2.25-6.05,8.06-6.92,13.21,0,1.13-.11,2.25-.16,3.38l-1.45-.1-.06-7.81c.28-3.07.56-6.13.83-9.07-4.89-.15-6.58,2-6.43,6.14,0,1.3-1,2.63-1.58,3.94l-1.92.05,0,.06c-.23-.89-.47-1.78-.7-2.68l-.61,0-.35,2.32-2.56.13.06-11.19,3.65-1.75,12.09-1.1h1.77l2.63,0Z"/><path class="cls-19" d="M235.67,373.92c0-4.7-.41-8.83.2-12.8.26-1.64,2.49-3.41,4.25-4.24s4.2-.7,6.92-1.06c0,5.12.13,9.91-.11,14.68a3.71,3.71,0,0,1-2.41,2.51A80.58,80.58,0,0,1,235.67,373.92Z"/><path class="cls-26" d="M254.45,426.65a52.08,52.08,0,0,1,2.2,6.86c.39,2.09-.17,4,2.85,5s1.94,10.11-1.07,12.14c-1.44,1-2.33,2.78-3.46,4.21l-1.82,2.29-1.6-.11c-.32-1.29-.63-2.57-1-3.85q.24-6.1.47-12.22c1-2.18,2.45-4.27,3-6.56C254.61,431.93,254.35,429.25,254.45,426.65Z"/><path class="cls-28" d="M193.68,384.29c.22-8.71.52-17.41.65-26.12.17-10.72.21-21.44.3-32.16l1.78-.22q.68,3,1.37,6.07l0,1.89c-.49,2.24-1.44,4.51-1.37,6.73.23,7.08.84,14.15,1.31,21.21l.55,3.82q.16,5.64.34,11.28l.72,3.86-.1-.23-.22.1Z"/><path class="cls-11" d="M207.22,450.53c1.65,4,1.06,5.17-2.86,5.22-6.05.07-12.11,0-18.6,0V445.51c1.66,2.84,3.51,4.92,6.66,1.63,1.56,4,4.22,5,7.69,3.35,1.52-.73,3.35-.82,5-1.2Z"/><path class="cls-19" d="M189.92,367.49v-8.62h1.6v24.86h-2.21l-6.4-.17c.85-4.48-1.67-9.58,2.19-14.19l2.45,3.66,1.35.08Z"/><path class="cls-19" d="M184.84,443.5l-.48,7.06c-1.75.53-3.51,1-5.25,1.6-1.14.37-2.26.81-3.39,1.23-.82-1.23-2.27-2.42-2.35-3.69a87.56,87.56,0,0,1,.08-12.65c.08-1.11,1.68-2.11,2.59-3.15.57,1.14,1.52,2.26,1.62,3.45.25,2.73.08,5.5.08,9.21l6.95-3.68C184.63,442.66,184.74,443.08,184.84,443.5Z"/><path class="cls-17" d="M193.68,384.29l5.36-3.77c.21.81.44,1.62.66,2.43l-.84,3.3c-4.49,9.83-3.33,20.42-3.77,30.8h-1.41Z"/><path class="cls-13" d="M136.41,428.49h-1.77c.1-6.26.22-12.53.31-18.79q.26-18.3.5-36.59l1-14.62c.65.31.65.31.84,13.79Q136.87,400.39,136.41,428.49Z"/><path class="cls-27" d="M198.64,376.79q-.18-5.64-.34-11.28l14.46-2.65v14.27c-2.08-4.57,1.11-9.29-3.57-13.4l-1.48,10.76h-.78l-.69-8.82-1.76,0c-.9,4.52-.28,9.19-.38,13.79l-1.78.62V366.5l-1.43-.25c-.41,1.44-.92,2.86-1.22,4.32C199.25,372.63,199,374.72,198.64,376.79Z"/><path class="cls-11" d="M197,437.31c-.37-3.28,1.18-4.48,4.35-4.34a96.64,96.64,0,0,0,10.07,0c3.33-.2,4.64,1.07,4,4.34l-10.55,1.11-4.34-.08C199.91,436.07,198.7,435.91,197,437.31Z"/><path class="cls-26" d="M190.77,304.6c-.25-2.61-.51-5.22-.76-7.83,0-5.27-.14-10.54,0-15.8.08-4,.46-8,.74-12.6,3,4.17,2.47,7.9,2.12,12-.63,7.44-.23,15-.34,22.44a20.17,20.17,0,0,1-.76,3.69Z"/><path class="cls-13" d="M191.63,396.85v34.5l-1.86,0-1.56-34.44Z"/><path class="cls-16" d="M198.86,386.25l.84-3.3c3.9.26,7.81.37,11.68.86,1.53.2,4.13,1.15,4.18,1.91.13,1.67-1.05,3.44-1.93,5.8C209.47,385.18,203.71,387.23,198.86,386.25Z"/><path class="cls-22" d="M197,267.81l2.65,1.7c-.24,1.21-.49,2.42-.74,3.63l0,8.8c0,1.59,0,3.17-.15,4.75-.28,4.25-.59,8.5-.89,12.75H197l-.69-6.15c-.09-1.47-.19-2.94-.29-4.41.11-2.88.22-5.77.32-8.65,2.41-3,2.33-6,0-9-.07-1.12-.15-2.23-.22-3.35h.41Z"/><path class="cls-15" d="M205.14,449.29c-1.68.38-3.51.47-5,1.2-3.47,1.67-6.13.63-7.69-3.35q1.38-1.86,2.78-3.7l7.06,1.8Z"/><path class="cls-26" d="M212.13,447.74l-.48-1.62a23.74,23.74,0,0,1,1.21-2.15c.74-1.06,1.44-2.71,2.41-2.92s2.64.67,3.56,1.54a57.28,57.28,0,0,1,4.46,5.2Z"/><path class="cls-29" d="M197,299.43h.88c.34,1.73.69,3.46,1,5.19,0,.36,0,.71,0,1.07l-1.14,26.16-1.38-6.07c0-1.61-.08-3.21-.1-4.82q-.08-7.39-.13-14.78c.15-1.21.3-2.42.46-3.63Z"/><path class="cls-13" d="M190.77,304.6l1,1.86c.27,3.23.7,6.46.78,9.69s-2.38,2.57-4.32,2.63c-.3-.6-.6-1.2-.89-1.8l2.61-2.13-2.67-1.31c0-1.19-.06-2.39-.1-3.59Z"/><path class="cls-12" d="M296.93,451l-4.15-.6c-.76-4.51-4.77-3.28-7.55-4-.39-.11-1.4,2.12-2.13,3.27-1.73-4.94-1.42-5.22,5.92-5.57,3.41.7,7.43.19,9,4.57C297.64,449.49,297.29,450.27,296.93,451Z"/><path class="cls-11" d="M211.94,456.48c-5.13-1.47-2-4.82-1.72-7.53l2.35,2.69,10.69,1.23.1,2.58Z"/><path class="cls-19" d="M182.11,383.6c-2.26.41-4-.2-3.49-2.83.63-3.64-2-7.83,1.78-11,.56,1.56,1.45,3.09,1.59,4.69C182.26,377.51,182.1,380.57,182.11,383.6Z"/><path class="cls-19" d="M198.64,376.79c.33-2.07.61-4.16,1-6.22.3-1.46.81-2.88,1.22-4.32l1.43.25v13.6l-3,.55Z"/><path class="cls-14" d="M196.17,306.19q.06,7.38.13,14.78c0,1.61.07,3.21.1,4.82l-1.77.22c-.08-5.6-.26-11.19-.18-16.79C194.47,308.2,195.57,307.2,196.17,306.19Z"/><path class="cls-10" d="M191.63,396.85l-3.42.09-1.08-.62c3.73-3.68-.09-8.66,2.18-12.59h2.21Q191.58,390.29,191.63,396.85Z"/><path class="cls-26" d="M188.39,239.84c.59-.86,1.59-1.67,1.71-2.59.64-5.11,1.06-10.24,1.55-15.37.45.55,1.31,1.12,1.28,1.64-.33,6-.8,12.09-1.23,18.13Z"/><path class="cls-30" d="M202.26,445.24l-7.06-1.8-2.88-2.6h11.57Z"/><path class="cls-27" d="M288.36,435.56c-.3-.8-.59-1.59-.88-2.39-.92-2.52,2.24-7.08-3.4-7.19a82,82,0,0,0-9.22.85l-1.4-2.61c3.75,0,7.5.06,11.23-.13,2.77-.13,4,.84,3.79,3.7C288.3,430.37,288.39,433,288.36,435.56Z"/><path class="cls-27" d="M175.72,453.39c1.13-.42,2.25-.86,3.39-1.23,1.74-.56,3.5-1.07,5.25-1.6,0,2,0,4,0,6l-.4,0-9-.8C175.21,455,175.47,454.19,175.72,453.39Z"/><path class="cls-22" d="M197.75,361.69c-.47-7.06-1.08-14.13-1.31-21.21-.07-2.22.88-4.49,1.37-6.73l.18,6.06,0,4.48q0,7,0,14Z"/><path class="cls-19" d="M202.26,445.24l1.63-4.4,3-.86,1.66,0-1.35,10.51-2.08-1.24Z"/><path class="cls-14" d="M212.57,451.65l-2.35-2.7,1.91-1.21,11.16.05,4.42,1.76-3.34.17Z"/><path class="cls-11" d="M184.33,439.77a35.59,35.59,0,0,1,2.44-5.89c.19-.31,3.3.27,3.61,1,1.87,4.48-2.54,4.13-4.67,5.55Z"/><path class="cls-27" d="M182.11,383.6c0-3,.15-6.09-.12-9.1-.14-1.6-1-3.13-1.59-4.69l9.52-2.32-1,5.62-1.35-.08-2.45-3.66c-3.86,4.61-1.34,9.71-2.19,14.19l-.4.07Z"/><path class="cls-26" d="M208.57,440l-1.66,0-2-1.58,10.55-1.11-5,5.07C209.77,441.57,209.17,440.8,208.57,440Z"/><path class="cls-13" d="M140.7,429.23l-1.66-.72c.31-9.12.59-18.24.94-27.36a9.72,9.72,0,0,1,.75-2.43q0,10.95.08,21.9c0,2.64,0,5.27,0,7.91Z"/><path class="cls-27" d="M224.37,449.72l3.34-.17,1.79,3.57-1.78,2.22-4.36.11c0-.86-.07-1.72-.1-2.58Z"/><path class="cls-29" d="M271.69,452.47c-3.37-1.29-3.24-3.56-1.72-6.21l2.53-1,2.87.14C274.12,447.82,272.91,450.15,271.69,452.47Z"/><path class="cls-16" d="M296.93,451c.36-.77.71-1.55,1.06-2.33l5.15.08,1.84,1.59C302.56,453.72,299.76,452.5,296.93,451Z"/><path class="cls-15" d="M273.17,347.43c-3.63.06-7.25.23-10.88.15-2.72-.06-5.44-.45-8.16-.69,0-.3,0-.59-.08-.89Z"/><path class="cls-17" d="M140.81,420.62q0-11-.08-21.9l.24-1.27,1,0Q141.4,409,140.81,420.62Z"/><path class="cls-28" d="M196.38,271.22c2.28,3,2.36,6,0,9Q196.36,275.72,196.38,271.22Z"/><path class="cls-28" d="M197,299.43l-.36,3.13c-3.45-2.66-.71-6.17-1.28-9.23l1-.05Z"/><path class="cls-11" d="M227.72,455.34l1.78-2.22,4.07,1.22,0,1Z"/><path class="cls-26" d="M197,437.31c1.67-1.4,2.88-1.24,3.49,1C199.17,438.64,197.41,440.35,197,437.31Z"/><path class="cls-12" d="M196.3,293.28l-1,.05.66-4.46C196.11,290.34,196.21,291.81,196.3,293.28Z"/><path class="cls-18" d="M188.2,268.57a1.85,1.85,0,0,0,0-.81C188.23,268,188.22,268.3,188.2,268.57Z"/><path class="cls-15" d="M253.06,345.2l1,.81Z"/><path class="cls-12" d="M197,267.81l-.4.07h-.41l0-.92Z"/><path class="cls-9" d="M330.56,388c.32-3,.65-6,1-9,2.13,1.88,11.12,3.15,13.28,1.69.79-.53,1-1.88,1.51-2.86l13.94-.32,5.41.91c.86-1,2.35-2,2.46-3.13a79.55,79.55,0,0,0-.09-9.13c.46-2.74-.79-3.59-3.43-3.5a61.78,61.78,0,0,1-6.91-.52l-17.54-.48,3.62-5.23,1.59,2.26.66-.24c-.19-1.18-.39-2.35-.58-3.52l33.34,1.8a3.57,3.57,0,0,0,.18.8l.69,15.63q.06,8.37.13,16.74l-8.73.82-.84-5.22-1,.25c.25,1.36.49,2.72.74,4.08H348.6v.71l21.33,1.25q0,16.58,0,33.16l-6.56.29v4.09c-.08,3.85-.17,7.71-.25,11.56-.93-1.38-1.83-2.78-2.81-4.13s-1.85-2.4-2.78-3.59l-4,.75a1.46,1.46,0,0,0-.77-.1c-.92-.58-1.83-1.64-2.76-1.66-4.42-.12-8.84,0-13.26.1l-9.71.5,8-2.32a61.06,61.06,0,0,0-4.78-4.08c-3.08-2.14-4.69-1.23-5,2.48a16.61,16.61,0,0,1-.85,3.1l-1.76-.16,1.22-3.44-8.21,3.47-4.46.4,1.74-3.67c.29-2.64.59-5.28.87-7.92.31-2.93.59-5.85.89-8.78a44.12,44.12,0,0,0,.88,7.31c.34,1.24,1.76,2.92,2.84,3,1.47.16,3-1.19,4.63-1.53,4.42-.93,5.44-7.53,11.1-6.55.64.11,2.18-1.58,2.27-2.54a4,4,0,0,0-1.84-2.93c-1-.63-2.41-.56-3.65-.79l-.28-1.54L343,403.86c-.5,1.63-.51,3.36-1.36,4.07-3,2.52-2,3.92.9,5.34.82.4,1.35,1.42,2.46,2.65,0-9.1,0-17.56,0-26Z"/><path class="cls-28" d="M371.08,390.68l8.73-.82c10.45.76,20.9,1.5,31.34,2.33.7.05,1.35.73,2,1.11q-17.94-.75-35.89-1.49c-2-.08-4,0-6.08-.06Z"/><path class="cls-15" d="M199.72,339l-1.73.79-.18-6.06,0-1.89,1.14-26.16c.53,3.13,1.5,6.26,1.49,9.38C200.41,323.06,200,331,199.72,339Z"/><path class="cls-15" d="M378.81,356.69l-33.34-1.8L335.72,353c10.68.82,21.36,1.61,32,2.47C371.45,355.81,375.13,356.29,378.81,356.69Z"/><path class="cls-28" d="M425.59,392.63l4.18.93c-.53.46-1.09,1.37-1.58,1.33-4.78-.4-9.55-1-14.32-1.48Z"/><path class="cls-15" d="M379.68,373.12,379,357.49Z"/><path class="cls-31" d="M318.19,324.92l-2.61-1.77Z"/><path class="cls-20" d="M307.65,248.51,305,245Z"/><path class="cls-32" d="M187.24,313.54l2.67,1.31L187.3,317Z"/><path class="cls-11" d="M373.54,457.43q-.85-7-1.73-14l12.16-1.2,1.17,1.23c1,3.56-.48,8.68,5.75,8.82q-1.26,2.16-2.5,4.32Z"/><path class="cls-8" d="M404.27,456.6l-4.9-1c-.67-4.63-1.46-9.24-1.82-13.89,0-.46,2.72-1.77,3.9-1.48a4.47,4.47,0,0,1,2.55,3.29C404.35,447.83,404.22,452.23,404.27,456.6Z"/><path class="cls-19" d="M385.14,443.49,384,442.26c0-2.62,0-5.25,0-7.88-.05-3.36-1.63-5.09-5.17-5-2.63.09-5.26-.11-7.89-.18l0-3.54.85-.68,14.93.87c0,4.47.08,8.94-.12,13.4C386.53,440.7,385.65,442.09,385.14,443.49Z"/><path class="cls-8" d="M385.14,443.49c.51-1.4,1.39-2.79,1.45-4.2.2-4.46.1-8.93.12-13.4.54,1.16,1.5,2.31,1.55,3.49.18,4.51.07,9,.07,13.81l3.2.17c-.22,3.1-.43,6-.64,8.95C384.66,452.17,386.1,447.05,385.14,443.49Z"/><path class="cls-17" d="M371.78,425l-.85.67-1-.78q0-16.57,0-33.16v-2c-.25-1.36-.49-2.72-.74-4.08l1-.25.84,5.22.12,1.07Q371.49,408.39,371.78,425Z"/><path class="cls-8" d="M135.45,373.12q-.25,18.3-.5,36.59c-.09,6.26-.21,12.53-.31,18.79l-12.09,1.1c.47-14,1-28,1.31-42a7.68,7.68,0,0,0-2.08-4.84,4.07,4.07,0,0,1,1.81-6.86C127.46,374.74,131.49,374,135.45,373.12Z"/><path class="cls-33" d="M408.66,173l-1.74.91Z"/><path class="cls-33" d="M406.91,173.87l-.86.87Z"/><path class="cls-13" d="M283.1,449.71c.73-1.15,1.74-3.38,2.13-3.27,2.78.72,6.79-.51,7.55,4a55.8,55.8,0,0,1-6.43.56C285.26,451,284.19,450.17,283.1,449.71Z"/><path class="cls-13" d="M327,432.72l9.71-.5c3.58.69,4.83,2.88,4.38,6.42a41.72,41.72,0,0,0,0,5.59l-4.61,1.06h-9.95l8.69-5.64-4.83-1.56c-.16.18-.43.36-.51.6-.59,1.84.67,4.87-3,4.71s-2.36-3-2.52-4.95a54.23,54.23,0,0,1,.07-5.7Z"/><path class="cls-25" d="M352.75,433.78a1.46,1.46,0,0,1,.77.1c3.69,1.65,2.92,5,2.92,8a38.6,38.6,0,0,1-.63,5l.11,0-.86.58.91.73.61.65c0,2.53,0,5.07,0,7.6l-9.23.08c-1.8-3.71-4.31.65-6.34-.55l-2.72-1.14,4.61-2.59,3.32-5c7.05-1.16,7.45-1.65,5.48-8ZM354,450l.29.18.05-.3Z"/><path class="cls-17" d="M351.66,439.19c2,6.38,1.57,6.87-5.48,8l-3.32,5c-1.43-1.52-2.86-3-4.28-4.55-.69-.81-1.37-1.62-2.06-2.42l4.61-1.06c.78-.56,2.13-1,2.24-1.69.47-2.91.58-5.88.85-9.1h7.12C351.46,435.58,351.56,437.38,351.66,439.19Z"/><path class="cls-17" d="M311.19,432.17l4.46-.4,3.88,1.09a20.56,20.56,0,0,1,.41,14.11L310,445.79C310.4,441.19,310.8,436.68,311.19,432.17Z"/><path class="cls-25" d="M327,432.72l-2.54,0a2.22,2.22,0,0,1-.08-.85,16.61,16.61,0,0,0,.85-3.1c.28-3.71,1.89-4.62,5-2.48A61.06,61.06,0,0,1,335,430.4Z"/><path class="cls-13" d="M338.58,447.71c1.42,1.52,2.85,3,4.28,4.55l-4.61,2.59Z"/><path class="cls-25" d="M319.53,432.86l-3.88-1.09,8.21-3.47-1.22,3.44Z"/><path class="cls-16" d="M125,442.64c.56-1.31,1.63-2.64,1.58-3.94-.15-4.16,1.54-6.29,6.43-6.14-.27,2.94-.55,6-.83,9.07l-2.16,6.28-4-.33C125.74,445.93,125.38,444.29,125,442.64Z"/><path class="cls-10" d="M125,442.64l1.06,4.94,4,.33c.69,3.07-.3,4.67-3.67,4.3-1.27-.14-2.56-.13-3.83-.19.19-3.11.37-6.22.56-9.34Z"/><path class="cls-16" d="M132.27,449.44l1.45.1-1.63,2.65Z"/><path class="cls-16" d="M121.4,442.41l.35-2.32.61,0c.23.9.47,1.79.7,2.68Z"/><path class="cls-15" d="M357.53,433.13c.93,1.19,1.9,2.36,2.78,3.59s1.88,2.75,2.81,4.13l1.26,1.19c-.21,2.8-.41,5.61-.62,8.42l-5.66-8.86Z"/><path class="cls-12" d="M358.1,441.6l5.66,8.86,2.81,5.31-2.42,0c-1.1-2.11-2.21-4.21-3.65-7l-1.34,2.71Q358.62,446.56,358.1,441.6Z"/><path class="cls-14" d="M356.58,448.86l-.61-.65-.05-1.31-.11,0C356.06,447.52,356.32,448.19,356.58,448.86Z"/><path class="cls-8" d="M364.38,442l-1.26-1.19c.08-3.85.17-7.71.25-11.56l7.54-.05c2.63.07,5.26.27,7.89.18,3.54-.13,5.12,1.6,5.17,5,0,2.63,0,5.26,0,7.88l-12.16,1.2-.78,0Z"/><path class="cls-11" d="M364.38,442l6.65,1.45a107.34,107.34,0,0,1-.39,10.78c-.16,1.2-1.82,2.21-2.79,3.31l-1.28-1.81-2.81-5.31C364,447.65,364.17,444.84,364.38,442Z"/><path class="cls-21" d="M255,275.73c-6.66,1.7-12.87,5.51-20.34,1.64a20.5,20.5,0,0,0-19.26.14c-3.05,1.55-5.75.72-8.59-1.1-2.36-1.51-5.25-2.21-7.9-3.27.25-1.21.5-2.42.74-3.63,3.17,1.44,6.27,3.08,9.54,4.22a9.78,9.78,0,0,0,5.34.15c3.92-1,7.67-2.72,11.61-3.63,5.73-1.32,11-.32,16.38,2.66,2.63,1.47,6.5.73,9.81,1Z"/><path class="cls-28" d="M199.59,237.21q.38,8.26.74,16.55c-.38,1-.75,2-1.13,3l-.78-.08Z"/><path class="cls-33" d="M297.39,242.35l1.37.41-1.34.43Z"/><path class="cls-23" d="M328.75,256.4l1.71,1.79Z"/><path class="cls-26" d="M340.18,361.62l17.54.48,1.77,4.95-.13,5.2-2.15,1.5L356,370.08l-7.27,6.49c.68-2.33,1.09-3.74,1.53-5.27-2.9-2-5,0-6.75,1.76-.48.49.69,2.63,1.1,4l-4.41-.43c1.28-4.53.61-5.19-3.76-4.78-1.83.17-3.76-.71-5.34-1.05l-5.8,2.44q0-6.66,0-13.33Z"/><path class="cls-26" d="M306.78,358.42l16.65,1.51c0,3.78-.11,7.57.11,11.34.06,1.22,1,2.39,1.56,3.58l.09.83-13.1-.91c-4.66-2-4.73-5.9-4.49-10.11a26.51,26.51,0,0,0-.76-5.39Z"/><path class="cls-19" d="M306.78,358.42l.06.85v12.59l-9.68-.43V357.37Z"/><path class="cls-8" d="M344.6,377.07c-.41-1.38-1.58-3.52-1.1-4,1.74-1.74,3.85-3.78,6.75-1.76-.44,1.53-.85,2.94-1.53,5.27l7.27-6.49,1.22,3.67,2.15-1.5q.47,2.61.92,5.22l-13.94.32Z"/><path class="cls-13" d="M325.19,375.68l-.09-.83c.07-.53.13-1.06.19-1.6l5.8-2.44c1.58.34,3.51,1.22,5.34,1.05,4.37-.41,5,.25,3.76,4.78Z"/><path class="cls-13" d="M297.16,371.43l9.68.43V359.27a26.51,26.51,0,0,1,.76,5.39c-.24,4.21-.17,8.13,4.49,10.11-4.42-.24-8.85-.37-13.25-.82C298.2,373.88,297.72,372.31,297.16,371.43Z"/><path class="cls-15" d="M330.56,388,345,389.9,309,388.37v-1.12c2.45,0,4.91-.08,7.36,0C321.12,387.45,325.84,387.74,330.56,388Z"/><path class="cls-11" d="M325.29,373.25c-.06.54-.12,1.07-.19,1.6-.55-1.19-1.5-2.36-1.56-3.58-.22-3.77-.1-7.56-.11-11.34h1.85Q325.28,366.58,325.29,373.25Z"/><path class="cls-28" d="M314.69,411.8c-.3,2.93-.58,5.85-.89,8.78-.28,2.64-.58,5.28-.87,7.92V408l.84-.11C314.08,409.16,314.38,410.48,314.69,411.8Z"/><path class="cls-28" d="M314.86,395.77q-.48,3.8-1,7.59l-.95-.09.39-7.76Z"/><path class="cls-8" d="M224.37,449.72l-1.11,3.15-10.69-1.23Z"/><path class="cls-32" d="M360.28,377.47q-.45-2.61-.92-5.22c0-1.73.09-3.46.13-5.2l6.88-.72q-.35,6-.68,12.05Z"/><path class="cls-11" d="M351.66,439.19c-.1-1.81-.2-3.61-.32-5.75h-7.12c-.27,3.22-.38,6.19-.85,9.1-.11.67-1.46,1.13-2.24,1.69a41.72,41.72,0,0,1,0-5.59c.45-3.54-.8-5.73-4.38-6.42,4.42-.06,8.84-.22,13.26-.1.93,0,1.84,1.08,2.76,1.66Z"/><path class="cls-16" d="M366.37,366.33l-6.88.72-1.77-4.95a61.78,61.78,0,0,0,6.91.52c2.64-.09,3.89.76,3.43,3.5Z"/><path class="cls-10" d="M370.91,429.24l-7.54.05V425.2l6.56-.29,1,.78C370.93,426.88,370.92,428.06,370.91,429.24Z"/><path class="cls-15" d="M369.94,389.79v2l-21.33-1.25v-.71Z"/><path class="cls-8" d="M366.37,366.33l1.69-.21a79.55,79.55,0,0,1,.09,9.13c-.11,1.11-1.6,2.09-2.46,3.13Q366,372.35,366.37,366.33Z"/><polygon class="cls-14" points="354.02 450 354.36 449.88 354.31 450.19 354.02 450"/><path class="cls-16" d="M355.92,446.9l.05,1.31-.91-.73Z"/><use transform="translate(-3 661) scale(1.64 1.68)" xlink:href="#image"/><use transform="matrix(-1.64, 0, 0, 1.68, 1612, 661)" xlink:href="#image"/></svg>